<svg version="1.1" id="Layer_1" xmlns="http://www.w3.org/2000/svg" xmlns:xlink="http://www.w3.org/1999/xlink" x="0px" y="0px"
	 width="100%" viewBox="0 0 1380 752" enable-background="new 0 0 1380 752" xml:space="preserve">
<path fill="none" opacity="1.000000" stroke="#000000" stroke-linecap="round" stroke-linejoin="round" stroke-width="2.000000"
	d="
M671.000000,186.500000 
	C662.128784,161.040497 637.625183,156.921829 618.436035,165.862701 
	C604.625122,172.297699 595.081421,183.035019 586.055420,194.543472 
	C583.300598,198.055969 581.204651,202.085327 578.767761,205.940048 
	C582.213989,208.737167 584.010986,205.327179 585.381897,203.887527 
	C590.835327,198.160614 595.546875,191.720856 601.062073,186.060486 
	C611.274719,175.578995 622.907410,167.637558 638.498901,168.519211 
	C651.200623,169.237457 661.288513,174.414780 667.529663,185.983994 
	C668.312317,187.434845 668.273193,189.893478 671.000000,189.500000 
"/>
<path fill="none" opacity="1.000000" stroke="#000000" stroke-linecap="round" stroke-linejoin="round" stroke-width="2.000000"
	d="
M853.500000,367.000000 
	C846.268921,360.888855 837.385803,359.806305 828.496216,359.044189 
	C816.094360,357.980896 804.957031,362.480560 794.003845,367.508331 
	C788.139893,370.200012 782.312073,372.971558 775.999634,374.498474 
	C764.479797,377.285126 754.307922,373.893219 744.465698,368.057800 
	C735.246704,362.591888 725.826660,357.396790 714.499268,357.986206 
	C707.450928,358.352936 703.682373,360.802734 702.379272,366.530731 
	C695.303650,360.934357 693.479858,353.527771 694.653015,345.522430 
	C695.496582,339.765991 698.456543,334.632111 701.200073,329.344360 
	C705.888245,320.308411 711.078735,311.719421 716.948608,303.463470 
	C717.342163,302.909943 717.000000,301.833344 717.000000,301.000000 
"/>
<path fill="none" opacity="1.000000" stroke="#000000" stroke-linecap="round" stroke-linejoin="round" stroke-width="2.000000"
	d="
M707.500000,371.000000 
	C726.825012,379.787292 738.346985,395.181396 744.456543,415.013397 
	C746.762939,422.500000 749.524170,429.731384 753.485107,436.508698 
	C759.318848,446.490326 768.013062,451.307281 779.494812,452.077301 
	C792.265442,452.933746 797.904846,454.212128 807.088013,464.094696 
	C814.833313,458.286987 822.666687,458.788483 831.243591,464.877502 
	C828.885559,453.338226 823.605896,445.521698 813.527100,440.940338 
	C804.089539,436.650421 794.007690,436.026611 783.993896,435.063599 
	C774.524536,434.152985 768.029846,429.453674 762.871460,421.584259 
	C758.244568,414.525726 755.663208,406.531860 751.142273,399.409698 
	C742.064209,385.108582 729.701172,375.307831 713.967468,369.589478 
	C712.030212,368.885376 709.747803,368.111755 707.500000,369.000000 
"/>
<path fill="none" opacity="1.000000" stroke="#000000" stroke-linecap="round" stroke-linejoin="round" stroke-width="2.000000"
	d="
M842.000000,391.000000 
	C832.879456,378.913116 818.354187,374.569031 803.010803,379.533478 
	C796.944824,381.496155 791.079102,384.093262 784.984314,385.948425 
	C770.144836,390.465393 756.959412,386.008331 744.491333,378.013489 
	C737.946045,373.816467 731.690247,369.216400 724.569153,365.853546 
	C719.791504,363.597382 715.064209,362.861115 710.000610,363.019775 
	C709.162903,363.046051 707.996582,363.038330 707.552124,363.545654 
	C703.143188,368.578278 696.288696,367.675781 691.003906,370.507355 
	C685.153442,373.642029 679.559814,377.397827 673.440918,379.852783 
	C666.278381,382.726471 658.699646,385.158630 651.000000,381.000000 
"/>
<path fill="none" opacity="1.000000" stroke="#000000" stroke-linecap="round" stroke-linejoin="round" stroke-width="2.000000"
	d="
M657.000000,493.500000 
	C652.439819,484.271545 646.312866,476.710144 636.006470,473.479340 
	C633.057434,472.554840 630.045105,472.004456 627.000610,472.044830 
	C621.240784,472.121185 617.904968,474.379181 616.660278,481.029999 
	C614.800171,490.969330 611.304932,500.361450 607.283203,509.403564 
	C602.570312,519.999756 605.409119,528.501038 610.906982,537.556458 
	C622.897644,557.306213 636.433167,575.989807 649.505737,594.996033 
	C652.314270,599.079407 654.695312,603.369934 656.580139,607.967163 
	C656.952759,608.876099 656.997803,609.671875 656.973450,610.499207 
	C656.793396,616.615601 657.577454,616.045715 662.500122,616.019714 
	C667.318970,615.994263 671.818604,614.478455 675.934692,612.372314 
	C679.613281,610.490112 680.398621,606.194397 681.436218,602.482178 
	C681.966797,600.583923 681.833313,598.500000 682.000000,596.500000 
"/>
<path fill="none" opacity="1.000000" stroke="#000000" stroke-linecap="round" stroke-linejoin="round" stroke-width="2.000000"
	d="
M675.000000,193.500000 
	C678.124329,181.872528 675.847717,171.036987 668.913391,161.563385 
	C655.538757,143.291122 633.485291,142.733765 614.006775,153.512268 
	C601.255859,160.568039 591.720093,171.107727 582.995850,182.496811 
	C581.756531,184.114639 582.461914,187.090027 579.500000,187.500000 
"/>
<path fill="none" opacity="1.000000" stroke="#000000" stroke-linecap="round" stroke-linejoin="round" stroke-width="2.000000"
	d="
M671.000000,199.750000 
	C673.559631,198.817078 673.901245,197.062851 672.464050,195.025375 
	C671.223206,193.266403 670.970886,191.151093 671.599792,189.538925 
	C674.796021,181.345200 670.417908,175.093994 665.873230,169.604980 
	C653.840332,155.071716 636.249634,152.434128 617.008179,160.519440 
	C606.070374,165.115540 597.484131,173.001465 588.986633,180.985794 
	C587.059204,182.796829 585.608337,185.360199 582.500000,185.500000 
"/>
<path fill="none" opacity="1.000000" stroke="#000000" stroke-linecap="round" stroke-linejoin="round" stroke-width="2.000000"
	d="
M832.000000,279.500000 
	C822.498901,294.114258 813.424805,309.009583 801.107605,321.605225 
	C798.297974,324.478394 795.235657,327.064056 792.432739,329.934296 
	C790.191528,332.229401 787.213013,332.207062 783.984192,331.581665 
	C772.850159,329.425049 762.003418,326.152527 750.997620,323.509918 
	C747.970276,322.783020 744.913940,322.176636 741.663391,321.469818 
	C742.850281,311.819855 746.219788,303.667938 752.000000,296.500000 
"/>
<path fill="none" opacity="1.000000" stroke="#000000" stroke-linecap="round" stroke-linejoin="round" stroke-width="2.000000"
	d="
M639.750000,344.000000 
	C639.666687,345.333344 639.561279,346.665741 639.505127,348.000214 
	C639.418945,350.049408 639.322388,351.483002 637.208008,353.249054 
	C634.324951,355.657166 633.878601,360.149689 632.955322,363.989258 
	C632.149658,367.339325 631.155579,370.579102 629.076782,373.553680 
	C625.003540,379.382294 619.428406,380.902252 613.542053,376.937592 
	C611.679688,375.683258 609.816528,374.794556 608.056091,376.076965 
	C605.465515,377.964020 604.956970,381.080841 605.606628,383.976074 
	C606.109436,386.216339 607.410278,388.087402 610.500488,388.063629 
	C621.676147,387.977661 632.415344,382.091248 635.980408,368.994659 
	C637.105408,364.862030 638.000000,360.666656 639.000000,356.500000 
"/>
<path fill="none" opacity="1.000000" stroke="#000000" stroke-linecap="round" stroke-linejoin="round" stroke-width="2.000000"
	d="
M652.000000,389.000000 
	C647.531372,391.655304 642.237915,391.158630 637.458374,392.884766 
	C628.939697,395.961182 620.254822,398.684998 611.471436,400.885986 
	C604.742493,402.572235 599.265869,406.417206 596.759583,412.114197 
	C591.829712,423.320007 583.812683,432.207214 576.978943,441.985291 
	C568.813538,453.668884 563.150818,466.751892 556.009033,479.005280 
	C551.829529,486.176270 547.394653,493.216278 541.855042,499.369507 
	C540.160767,501.251495 539.408997,505.676697 534.971802,504.078339 
	C534.688599,503.976318 533.725220,504.915283 533.541077,505.512634 
	C530.624512,514.973938 522.768677,520.488281 515.845459,526.316467 
	C507.844940,533.051697 501.891449,541.398682 494.963196,548.964478 
	C498.320984,552.204590 500.688843,552.467590 503.450562,549.454712 
	C505.373810,547.356567 506.833374,544.833374 508.500031,542.500000 
"/>
<path fill="none" opacity="1.000000" stroke="#000000" stroke-linecap="round" stroke-linejoin="round" stroke-width="2.000000"
	d="
M694.000000,250.000000 
	C696.426636,252.033218 697.656921,249.369629 698.940735,248.419861 
	C706.136414,243.096451 713.619690,238.569550 722.483521,236.431747 
	C730.286560,234.549820 738.154541,234.945465 745.997925,235.102615 
	C750.815674,235.199127 754.848999,233.891907 757.934082,230.441040 
	C760.436096,227.642303 759.937317,222.938202 757.507629,219.993729 
	C755.289551,217.305893 752.897156,216.354843 749.972412,218.938080 
	C753.597900,227.078873 751.217896,230.484894 742.000061,230.511581 
	C739.930115,230.517578 737.872253,230.425079 736.007263,229.485565 
	C726.046448,224.467514 717.735596,228.795135 709.485596,233.977097 
	C703.479309,237.749802 699.718750,243.944595 694.000000,248.000000 
"/>
<path fill="none" opacity="1.000000" stroke="#000000" stroke-linecap="round" stroke-linejoin="round" stroke-width="2.000000"
	d="
M673.000000,637.500000 
	C674.809265,633.216187 676.861450,629.054810 680.518799,626.022705 
	C683.968689,623.162598 686.133118,623.383667 688.429565,627.044189 
	C689.554382,628.837097 690.378174,630.870972 691.111389,632.960938 
	C693.775024,640.553589 688.756287,644.517700 681.503662,643.953003 
	C675.985229,643.523376 670.494385,642.096069 665.001465,642.150391 
	C658.719971,642.212463 652.996887,645.197449 647.562805,648.116882 
	C644.239868,649.902100 641.268005,650.686707 637.482239,650.118164 
	C632.724609,649.403809 627.833252,650.322693 622.987549,649.581360 
	C620.612122,649.218018 619.038025,648.176086 619.117615,646.004333 
	C619.190247,644.021362 621.357483,643.383362 622.991394,643.573792 
	C627.434448,644.091492 630.666077,641.939697 634.048828,639.569763 
	C636.464111,637.877563 639.284058,636.719421 642.016052,635.537170 
	C644.097412,634.636414 646.370728,633.225708 646.832336,631.456238 
	C648.348145,625.645691 652.321533,626.824768 656.501770,626.898071 
	C663.136414,627.014404 668.685730,630.058716 674.500000,632.500000 
"/>
<path fill="none" opacity="1.000000" stroke="#000000" stroke-linecap="round" stroke-linejoin="round" stroke-width="2.000000"
	d="
M641.500000,521.000000 
	C645.333313,526.000000 649.079834,531.069641 653.020081,535.983887 
	C659.143677,543.621277 661.384460,552.906250 663.342041,562.033875 
	C666.549744,576.990906 670.955994,591.479187 677.000000,605.500000 
"/>
<path fill="none" opacity="1.000000" stroke="#000000" stroke-linecap="round" stroke-linejoin="round" stroke-width="2.000000"
	d="
M706.500061,369.500031 
	C706.065430,370.367676 705.630798,371.235321 705.097351,372.300385 
	C712.332581,380.792023 717.801147,390.316254 719.624695,401.980499 
	C722.163696,418.221954 713.882080,431.801788 699.051880,435.697418 
	C694.216736,436.967529 689.236511,437.329803 684.464783,438.892395 
	C681.595642,439.832001 679.782227,438.541901 678.881287,435.030457 
	C675.089661,420.252655 668.406311,406.927704 657.476807,396.023254 
	C655.641174,394.191803 653.500000,392.666656 651.500000,391.000000 
"/>
<path fill="none" opacity="1.000000" stroke="#000000" stroke-linecap="round" stroke-linejoin="round" stroke-width="2.000000"
	d="
M600.500000,408.500000 
	C611.271118,408.606750 617.665771,415.751526 618.013306,427.999634 
	C618.089050,430.668854 619.307617,433.778259 618.328674,435.921753 
	C614.431335,444.455475 611.569214,453.451721 605.612122,461.087494 
	C597.818420,471.077454 587.268921,477.777374 578.031067,486.034790 
	C571.014771,492.306427 564.198730,498.554840 559.654724,507.321014 
	C557.256470,511.947754 550.637085,513.206909 545.015747,512.391357 
	C540.995178,511.808075 537.247253,510.080688 537.000000,505.000000 
"/>
<path fill="none" opacity="1.000000" stroke="#000000" stroke-linecap="round" stroke-linejoin="round" stroke-width="2.000000"
	d="
M699.500000,330.500000 
	C693.785156,327.530396 692.580444,324.066986 695.617065,318.796875 
	C699.174438,320.441589 697.705139,326.062469 702.841919,327.178497 
	C706.884888,326.237610 711.642761,324.777985 716.510010,324.068787 
	C727.693787,322.439331 734.827637,328.920319 740.994202,337.004395 
	C743.225403,339.929382 745.493774,342.760101 748.471619,345.037079 
	C753.775208,349.092407 757.714417,349.588409 763.500000,346.500031 
	C768.546326,343.806244 768.546326,343.806244 773.022461,347.016113 
	C768.965515,353.497803 763.493774,356.975525 755.492859,356.062775 
	C749.859985,355.420197 746.133423,352.274475 743.002441,347.998230 
	C740.324036,344.340149 737.685303,340.652954 734.996338,337.002716 
	C728.893677,328.718323 721.808716,326.410065 711.482056,328.926483 
	C708.935486,329.547028 706.166687,331.200897 703.500000,329.000000 
"/>
<path fill="none" opacity="1.000000" stroke="#000000" stroke-linecap="round" stroke-linejoin="round" stroke-width="2.000000"
	d="
M679.000000,440.000000 
	C678.319092,440.928802 677.322388,440.518280 676.501587,440.471649 
	C666.338440,439.893829 656.151855,441.626160 645.950562,439.208588 
	C641.099243,438.058807 636.483826,440.541992 634.001282,445.500641 
	C629.663391,454.165009 625.322083,462.827820 621.042358,471.520844 
	C620.876770,471.857269 621.333374,472.500000 621.500000,473.000000 
"/>
<path fill="none" opacity="1.000000" stroke="#000000" stroke-linecap="round" stroke-linejoin="round" stroke-width="2.000000"
	d="
M669.500000,293.000000 
	C665.998413,296.796204 659.946106,297.331848 657.392883,302.446533 
	C657.210938,302.810974 655.500183,303.263397 654.499939,302.500092 
	C652.886536,301.268890 651.642273,302.320007 651.079346,303.536713 
	C650.313110,305.192841 651.990356,306.700195 653.021057,306.877686 
	C659.124512,307.928955 660.344482,312.900482 661.975403,317.508698 
	C664.428040,324.438751 664.072937,325.812195 657.976379,329.965363 
	C649.068787,336.033508 639.531067,340.957306 628.987122,343.445343 
	C617.376953,346.184967 605.666687,348.500000 594.000000,351.000000 
"/>
<path fill="none" opacity="1.000000" stroke="#000000" stroke-linecap="round" stroke-linejoin="round" stroke-width="2.000000"
	d="
M753.500000,254.500000 
	C746.932129,258.180878 746.843323,258.625061 751.500061,264.499969 
	C755.239929,269.218262 754.738098,276.494690 750.500000,279.000000 
	C747.102356,281.008514 744.704102,280.303162 741.976196,276.466522 
	C741.769287,274.094910 745.230713,273.905090 745.013611,271.416809 
	C737.079224,264.925232 728.326111,259.838867 717.983276,258.645050 
	C713.415894,258.117889 708.614685,258.853027 704.019104,259.615234 
	C701.170654,260.087677 698.638245,259.621643 696.000000,259.000000 
"/>
<path fill="none" opacity="1.000000" stroke="#000000" stroke-linecap="round" stroke-linejoin="round" stroke-width="2.000000"
	d="
M571.000000,273.000000 
	C568.186523,275.343262 564.629395,277.334473 566.505981,281.997620 
	C568.557312,287.095215 572.928650,289.988129 578.491882,289.420502 
	C581.396606,289.124146 584.472290,288.872498 586.822083,286.941956 
	C587.986145,287.572205 588.429565,288.656036 587.953491,289.472870 
	C583.369385,297.337769 584.972656,305.356903 586.872864,313.529572 
	C587.290955,315.327637 587.903564,317.500000 587.000000,319.500000 
"/>
<path fill="none" opacity="1.000000" stroke="#000000" stroke-linecap="round" stroke-linejoin="round" stroke-width="2.000000"
	d="
M485.000000,286.000000 
	C489.452789,291.246124 495.839020,292.319305 501.982147,294.062897 
	C505.485291,295.057190 509.234161,295.739044 511.999939,298.500061 
	C512.667175,299.166168 513.281738,299.896698 514.009094,300.488831 
	C516.886230,302.831238 513.702515,308.309601 518.982544,309.573029 
	C523.487976,310.651154 525.780579,314.648926 528.511902,317.990234 
	C534.955688,325.873077 542.144165,333.023285 550.002808,339.496613 
	C551.650085,340.853516 553.257385,342.277649 555.014038,343.479492 
	C560.612854,347.310059 566.353638,349.121338 572.537170,344.550262 
	C573.263489,344.013367 574.500000,344.166656 575.500000,344.000000 
"/>
<path fill="none" opacity="1.000000" stroke="#000000" stroke-linecap="round" stroke-linejoin="round" stroke-width="2.000000"
	d="
M559.500000,509.500000 
	C560.221191,512.531128 562.413879,515.008667 562.097351,518.508789 
	C561.681458,523.108887 559.959778,526.417297 555.497253,527.992126 
	C553.012573,528.868958 550.522034,529.741699 547.995239,530.483826 
	C543.253113,531.876587 539.044617,534.173828 536.554504,538.531189 
	C533.180969,544.434570 528.070190,547.843933 522.097656,550.703918 
	C520.143555,551.639709 519.333313,550.575134 518.000000,550.500000 
"/>
<path fill="none" opacity="1.000000" stroke="#000000" stroke-linecap="round" stroke-linejoin="round" stroke-width="2.000000"
	d="
M858.000000,181.000000 
	C862.204346,186.814514 866.301270,192.809219 867.379395,200.018036 
	C868.163269,205.259064 867.836914,210.666565 867.998108,216.000061 
	C868.053345,217.826996 867.573181,219.975098 870.892944,220.119476 
	C872.428650,215.697556 870.421875,210.374817 874.000000,206.500000 
"/>
<path fill="none" opacity="1.000000" stroke="#000000" stroke-linecap="round" stroke-linejoin="round" stroke-width="2.000000"
	d="
M702.500000,437.500000 
	C695.448303,442.485809 690.849365,449.584229 685.976746,456.483551 
	C677.051331,469.121490 668.257874,481.866333 658.000000,493.500000 
"/>
<path fill="none" opacity="1.000000" stroke="#000000" stroke-linecap="round" stroke-linejoin="round" stroke-width="2.000000"
	d="
M517.500000,286.000000 
	C517.500000,285.166656 517.817261,284.145172 517.451660,283.528687 
	C513.043274,276.095703 514.639587,267.947754 514.481506,260.000366 
	C514.405701,256.192413 516.502075,252.999390 518.202148,250.119324 
	C521.112305,245.189346 528.755554,246.351578 531.947388,252.029572 
	C537.431824,261.785828 537.327576,272.243530 533.853271,282.450043 
	C531.476929,289.430908 525.266113,290.689331 518.469482,287.057129 
	C512.953186,284.109100 507.166656,281.666687 501.500000,279.000000 
"/>
<path fill="none" opacity="1.000000" stroke="#000000" stroke-linecap="round" stroke-linejoin="round" stroke-width="2.000000"
	d="
M663.000000,387.500000 
	C672.229431,395.343567 679.680725,404.574738 685.011780,415.494232 
	C688.269958,422.167816 691.788025,428.740204 691.500000,436.500000 
"/>
<path fill="none" opacity="1.000000" stroke="#000000" stroke-linecap="round" stroke-linejoin="round" stroke-width="3.000000"
	d="
M748.000000,261.500000 
	C745.736572,262.747406 743.876709,261.490570 742.003479,260.493439 
	C734.184692,256.331421 726.038086,253.382111 717.001770,254.024841 
	C712.585999,254.338928 708.274475,255.288177 703.974915,256.403168 
	C702.118835,256.884521 699.885864,257.536011 698.000000,256.000000 
"/>
<path fill="none" opacity="1.000000" stroke="#000000" stroke-linecap="round" stroke-linejoin="round" stroke-width="2.000000"
	d="
M748.500000,255.000000 
	C735.094727,248.078766 721.217224,247.138000 707.030823,252.088303 
	C704.513855,252.966583 701.599792,252.999420 699.500000,255.000000 
"/>
<path fill="none" opacity="1.000000" stroke="#000000" stroke-linecap="round" stroke-linejoin="round" stroke-width="2.000000"
	d="
M875.500000,259.000000 
	C878.146362,259.413849 879.711609,257.087341 881.940430,256.325714 
	C884.263306,255.531982 884.391846,257.363525 886.078430,257.944031 
	C880.501892,263.104309 873.829346,265.679047 867.926819,269.383331 
	C862.175598,272.992645 855.659912,269.941772 849.501465,269.871857 
	C847.159180,269.845276 844.887939,269.488373 842.485718,269.920807 
	C839.679626,270.425964 837.688110,271.045044 837.387878,274.490234 
	C837.202148,276.621765 835.645813,278.306519 833.000000,278.000000 
"/>
<path fill="none" opacity="1.000000" stroke="#000000" stroke-linecap="round" stroke-linejoin="round" stroke-width="2.000000"
	d="
M748.000000,236.000000 
	C748.666687,236.833328 749.606934,237.570114 749.942322,238.520355 
	C750.614746,240.425858 751.966614,242.351685 750.504456,244.503021 
	C749.020569,246.686340 746.984619,245.307800 745.526855,244.903275 
	C734.425964,241.822922 723.390747,241.501740 712.522888,245.561234 
	C707.223999,247.540543 702.154053,250.139359 697.009949,252.521469 
	C695.887085,253.041443 695.945068,253.833328 697.000000,254.500000 
"/>
<path fill="none" opacity="1.000000" stroke="#000000" stroke-linecap="round" stroke-linejoin="round" stroke-width="3.000000"
	d="
M699.000000,274.000000 
	C702.608032,274.978546 706.298767,273.310669 710.043152,274.898254 
	C717.149536,277.911285 723.607300,290.865936 719.756165,297.355286 
	C717.411316,301.306427 713.154175,304.997711 708.906311,306.776215 
	C697.313477,311.629852 686.939636,318.959808 674.993286,322.979980 
	C673.387817,323.520233 671.834595,324.506226 670.000000,324.000000 
"/>
<path fill="none" opacity="1.000000" stroke="#000000" stroke-linecap="round" stroke-linejoin="round" stroke-width="2.000000"
	d="
M733.500000,227.000000 
	C736.900085,225.174454 741.070984,224.703125 743.076050,220.536575 
	C744.582153,217.406616 744.134766,214.688110 741.923035,212.580780 
	C739.705322,210.467697 736.845215,209.309464 733.835205,212.071777 
	C734.688049,213.825562 737.191162,214.643600 736.145203,217.552231 
	C735.235107,220.083008 733.295593,220.655457 731.466919,221.420898 
	C729.445129,222.267136 727.191101,222.708084 724.995972,222.965424 
	C712.925171,224.380447 703.336853,229.868607 696.500000,240.000000 
"/>
<path fill="none" opacity="1.000000" stroke="#000000" stroke-linecap="round" stroke-linejoin="round" stroke-width="2.000000"
	d="
M696.500000,362.000000 
	C685.166931,362.404327 675.044373,366.733490 664.964417,371.423462 
	C660.610840,373.449066 656.074158,375.463226 651.000000,375.000000 
"/>
<path fill="none" opacity="1.000000" stroke="#000000" stroke-linecap="round" stroke-linejoin="round" stroke-width="2.000000"
	d="
M652.000000,307.000000 
	C650.727783,308.622284 648.696899,308.942535 646.978333,309.422302 
	C633.987610,313.049164 622.368469,319.449493 610.950684,326.419189 
	C606.587280,329.082672 601.759399,331.073364 596.970703,332.924194 
	C593.125549,334.410370 588.901855,333.811920 586.141968,330.866974 
	C583.907410,328.482635 582.884094,324.924469 585.000000,321.500000 
"/>
<path fill="none" opacity="1.000000" stroke="#000000" stroke-linecap="round" stroke-linejoin="round" stroke-width="2.000000"
	d="
M693.000000,249.000000 
	C690.961121,244.898499 691.127869,240.380325 690.449646,236.007812 
	C689.573914,230.361404 686.221375,225.819580 678.505188,226.554672 
	C675.162048,226.873169 672.605164,228.269684 672.924622,232.505692 
	C673.099182,234.819458 673.688049,237.360199 672.034058,239.509933 
	C669.082642,238.613953 670.277588,235.817947 669.620667,233.957397 
	C669.043274,232.322205 669.500000,230.321854 669.500000,228.255692 
	C666.713135,227.789093 664.307129,226.874725 662.008911,227.093353 
	C653.705811,227.883255 650.161926,230.882751 648.990479,240.498840 
	C648.787659,242.163376 649.558716,243.922531 648.500000,245.500000 
"/>
<path fill="none" opacity="1.000000" stroke="#000000" stroke-linecap="round" stroke-linejoin="round" stroke-width="2.000000"
	d="
M825.000000,268.500000 
	C812.166687,279.666656 799.308044,290.804626 786.532288,302.036713 
	C784.952026,303.426025 783.015320,304.678955 782.500000,307.000000 
"/>
<path fill="none" opacity="1.000000" stroke="#000000" stroke-linecap="round" stroke-linejoin="round" stroke-width="3.000000"
	d="
M779.500000,267.000000 
	C784.253235,269.968811 785.311890,273.133453 782.969299,278.486542 
	C780.789551,283.467316 774.409607,286.427368 768.516724,284.934052 
	C763.037170,283.545502 757.575806,281.848450 753.500000,277.500000 
"/>
<path fill="none" opacity="1.000000" stroke="#000000" stroke-linecap="round" stroke-linejoin="round" stroke-width="2.000000"
	d="
M755.000000,251.000000 
	C758.022400,249.296387 761.329590,250.301300 764.498718,249.987183 
	C769.407043,249.500702 773.140564,247.769791 775.146545,242.556381 
	C776.767944,238.342697 775.214478,235.347290 772.930542,232.556854 
	C769.811707,228.746445 766.754333,229.059906 762.916687,233.087418 
	C763.697083,234.196808 764.792175,234.831665 765.889954,235.648026 
	C769.109131,238.041992 767.886536,242.625458 764.012085,244.524628 
	C759.870728,246.554642 755.721436,246.202255 751.500000,245.000000 
"/>
<path fill="none" opacity="1.000000" stroke="#000000" stroke-linecap="round" stroke-linejoin="round" stroke-width="2.000000"
	d="
M875.000000,203.500000 
	C873.824707,207.501572 875.502563,211.016693 877.030334,214.486649 
	C879.146301,219.292435 880.237976,224.190979 880.070496,229.502228 
	C879.882507,235.464905 872.893311,244.492981 866.000000,243.500000 
"/>
<path fill="none" opacity="1.000000" stroke="#000000" stroke-linecap="round" stroke-linejoin="round" stroke-width="2.000000"
	d="
M586.000000,320.000000 
	C586.500000,320.000000 587.424622,319.926361 587.439209,320.010529 
	C588.218567,324.504700 588.585693,329.094696 593.413635,331.662415 
	C594.015320,331.982422 593.737122,334.535522 592.015320,335.526672 
	C588.961182,337.284698 585.938293,339.209259 582.483093,339.917511 
	C580.100525,340.405945 577.890076,341.361633 576.578369,343.060516 
	C569.173950,352.651062 559.424072,359.947937 551.536377,369.031616 
	C547.495728,373.684906 543.795959,378.638153 540.054138,383.541321 
	C539.652283,384.067963 540.000000,385.166656 540.000000,386.479858 
	C548.162720,383.215759 551.930115,375.185394 558.500000,370.500000 
"/>
<path fill="none" opacity="1.000000" stroke="#000000" stroke-linecap="round" stroke-linejoin="round" stroke-width="2.000000"
	d="
M585.000000,340.000000 
	C586.333313,341.000000 587.715576,341.941650 588.991333,343.010376 
	C593.848145,347.078766 594.237244,350.577026 590.475403,356.035706 
	C589.270447,355.959106 588.931030,354.137939 587.363831,354.637177 
	C585.300232,356.773071 583.729187,359.276123 582.891663,362.471588 
	C581.933044,366.128845 579.007629,368.810364 576.445679,371.447205 
	C571.359985,376.681427 566.928955,382.383606 563.012573,388.508057 
	C561.555725,390.786346 560.549255,393.565704 557.000000,393.000000 
"/>
<path fill="none" opacity="1.000000" stroke="#000000" stroke-linecap="round" stroke-linejoin="round" stroke-width="2.000000"
	d="
M477.500000,250.000000 
	C473.484375,248.389313 471.786499,251.132568 470.540100,254.017319 
	C465.734772,265.138702 465.348114,276.065765 472.500000,286.500000 
"/>
<path fill="none" opacity="1.000000" stroke="#000000" stroke-linecap="round" stroke-linejoin="round" stroke-width="2.000000"
	d="
M526.000000,248.000000 
	C516.083862,258.235840 516.324158,277.458130 526.500000,288.000000 
"/>
<path fill="none" opacity="1.000000" stroke="#000000" stroke-linecap="round" stroke-linejoin="round" stroke-width="2.000000"
	d="
M635.000000,256.000000 
	C627.477966,254.034576 620.785400,257.037140 613.999084,259.497559 
	C609.220337,261.230103 605.373291,264.574219 601.057678,267.098572 
	C596.626099,269.690704 596.943970,271.884766 601.500000,275.000000 
"/>
<path fill="none" opacity="1.000000" stroke="#000000" stroke-linecap="round" stroke-linejoin="round" stroke-width="3.000000"
	d="
M636.500000,249.500000 
	C622.669434,244.978378 609.314270,248.551559 596.017761,252.067154 
	C591.559448,253.245911 590.936096,257.192902 593.978943,261.966980 
	C595.539673,262.579346 595.687256,260.374542 597.000000,260.500000 
"/>
<path fill="none" opacity="1.000000" stroke="#000000" stroke-linecap="round" stroke-linejoin="round" stroke-width="2.000000"
	d="
M530.500000,301.000000 
	C537.792603,307.310211 546.763550,310.796814 555.045227,315.418976 
	C559.968445,318.166748 564.554810,321.045837 567.500000,326.000000 
"/>
<path fill="none" opacity="1.000000" stroke="#000000" stroke-linecap="round" stroke-linejoin="round" stroke-width="2.000000"
	d="
M529.000000,301.500000 
	C527.302124,304.007874 525.273193,306.371918 522.468750,307.416016 
	C518.213257,309.000305 518.559509,312.419373 519.126343,315.476562 
	C519.732727,318.747131 521.429321,321.801910 522.478333,325.007080 
	C524.206360,330.287231 522.012878,333.806366 516.503662,335.016632 
	C513.363953,335.706329 510.286194,336.111420 507.001770,336.149933 
	C498.152130,336.253662 489.618317,350.188416 493.029785,358.487762 
	C494.444550,361.929535 496.188629,365.235962 497.967804,368.994507 
	C501.368408,364.792847 502.197449,360.305817 502.001038,355.499969 
	C501.718781,348.594543 503.266022,342.279968 508.000000,337.000000 
"/>
<path fill="none" opacity="1.000000" stroke="#000000" stroke-linecap="round" stroke-linejoin="round" stroke-width="3.000000"
	d="
M636.500000,253.000000 
	C625.307495,250.126511 614.849976,253.278183 604.525513,257.069489 
	C602.679382,257.747406 601.166626,259.333282 599.500000,260.499969 
"/>
<path fill="none" opacity="1.000000" stroke="#000000" stroke-linecap="round" stroke-linejoin="round" stroke-width="2.000000"
	d="
M698.000000,440.000000 
	C693.480530,439.865295 689.395142,441.977203 685.000793,442.506439 
	C677.514771,443.408112 670.023315,443.969604 662.504883,442.963531 
	C662.133606,442.913818 661.833313,442.333344 661.500000,442.000000 
"/>
<path fill="none" opacity="1.000000" stroke="#000000" stroke-linecap="round" stroke-linejoin="round" stroke-width="2.000000"
	d="
M650.500000,502.000000 
	C645.135986,493.587311 638.589417,486.980042 628.019775,485.370209 
	C624.229858,484.792969 620.666687,485.568726 617.000000,485.500000 
"/>
<path fill="none" opacity="1.000000" stroke="#000000" stroke-linecap="round" stroke-linejoin="round" stroke-width="2.000000"
	d="
M846.000000,288.500000 
	C846.084473,294.583466 843.761780,300.360901 843.888367,306.502289 
	C843.962341,310.092163 844.785706,312.820282 848.009705,314.481171 
	C850.836487,315.937469 853.214172,314.642487 855.505615,313.007874 
	C857.813599,311.361481 860.106384,311.486084 862.511292,312.981873 
	C869.753784,317.486481 872.280518,316.849213 877.033020,309.448547 
	C875.142883,307.658691 872.841736,306.694702 871.756836,303.584839 
	C870.091248,298.810272 864.788452,298.801453 861.058960,301.579193 
	C857.917236,303.919250 856.699524,307.513153 857.000000,311.500000 
"/>
<path fill="none" opacity="1.000000" stroke="#000000" stroke-linecap="round" stroke-linejoin="round" stroke-width="2.000000"
	d="
M841.500000,214.000000 
	C836.805481,221.936768 835.136292,229.845795 842.020386,237.481628 
	C844.800293,240.565216 847.619019,243.803131 852.500000,243.000000 
"/>
<path fill="none" opacity="1.000000" stroke="#000000" stroke-linecap="round" stroke-linejoin="round" stroke-width="2.000000"
	d="
M641.500000,243.500000 
	C631.483582,237.543228 620.038574,237.108093 609.018372,234.907837 
	C602.174316,233.541397 598.558899,226.900024 601.000000,221.500015 
	C603.408813,216.171616 605.104797,215.512009 610.000000,218.000000 
	C605.910706,223.702423 607.444031,227.831482 614.514038,229.438248 
	C617.597229,230.138947 620.848267,230.063934 623.996826,230.521851 
	C630.133057,231.414291 635.555420,234.252472 641.000000,237.000000 
"/>
<path fill="none" opacity="1.000000" stroke="#000000" stroke-linecap="round" stroke-linejoin="round" stroke-width="3.000000"
	d="
M638.500000,246.500000 
	C630.414062,241.980286 621.745117,242.836761 612.994324,243.414093 
	C606.094727,243.869278 599.916870,247.316101 593.004700,247.609909 
	C591.638977,247.667984 590.427612,248.002731 588.978455,247.572632 
	C586.659302,246.884308 584.437683,246.304489 584.017029,243.497452 
	C583.612244,240.797501 585.636902,239.677063 587.501587,238.502533 
	C588.010498,238.181976 588.538635,237.892059 589.065674,237.583618 
	C585.132202,232.573212 579.723816,233.474625 577.000061,239.500015 
	C573.991638,246.154877 577.720520,252.448273 585.000061,252.999573 
	C587.664490,253.201355 590.383667,252.528412 593.000000,253.500000 
"/>
<path fill="none" opacity="1.000000" stroke="#000000" stroke-linecap="round" stroke-linejoin="round" stroke-width="2.000000"
	d="
M642.000000,251.500000 
	C639.224609,263.185791 632.568726,273.423676 629.500000,285.000000 
"/>
<path fill="none" opacity="1.000000" stroke="#000000" stroke-linecap="round" stroke-linejoin="round" stroke-width="2.000000"
	d="
M683.000000,280.000000 
	C685.189758,277.100128 687.468750,274.379303 684.597229,270.429321 
	C683.537964,268.972137 685.277710,267.555511 686.614380,266.424255 
	C689.710754,266.955902 691.511963,268.888428 691.979248,272.003113 
	C692.513428,275.563690 694.518005,276.409698 697.989136,276.654205 
	C702.589417,276.978241 707.580750,276.731201 711.486633,280.015869 
	C716.145142,283.933411 718.502991,288.738464 717.048584,295.011261 
	C716.718506,296.434723 717.000000,298.000000 717.000000,299.500000 
"/>
<path fill="none" opacity="1.000000" stroke="#000000" stroke-linecap="round" stroke-linejoin="round" stroke-width="2.000000"
	d="
M622.000000,434.000000 
	C625.749695,421.331207 619.772827,407.606598 608.500000,403.000000 
"/>
<path fill="none" opacity="1.000000" stroke="#000000" stroke-linecap="round" stroke-linejoin="round" stroke-width="2.000000"
	d="
M859.500000,211.500000 
	C856.333313,216.833328 852.820374,221.995789 850.083923,227.541397 
	C846.303406,235.202637 851.751526,245.309326 858.500000,246.000000 
"/>
<path fill="none" opacity="1.000000" stroke="#000000" stroke-linecap="round" stroke-linejoin="round" stroke-width="2.000000"
	d="
M720.000000,284.500000 
	C724.333313,286.333344 728.704346,288.083313 732.990662,290.020721 
	C738.573914,292.544403 744.557861,292.877319 750.500000,293.500000 
"/>
<path fill="none" opacity="1.000000" stroke="#000000" stroke-linecap="round" stroke-linejoin="round" stroke-width="3.000000"
	d="
M646.500000,281.000000 
	C645.821045,282.975403 643.080322,282.774109 642.514526,282.742188 
	C630.681885,282.075226 623.192017,290.233643 614.468933,295.952606 
	C609.286560,299.350250 605.567749,303.231323 607.005249,309.998901 
	C607.288269,311.331390 606.198547,311.847900 605.481873,312.479431 
	C599.012878,318.179749 599.000000,318.165131 598.999817,326.001099 
	C596.761108,327.100067 594.854004,326.427795 592.985352,325.019409 
	C591.466187,323.874420 590.782715,321.660339 588.500000,321.500000 
"/>
<path fill="none" opacity="1.000000" stroke="#000000" stroke-linecap="round" stroke-linejoin="round" stroke-width="2.000000"
	d="
M782.000000,308.500000 
	C781.069214,312.551666 780.701416,316.442444 784.842773,319.246216 
	C787.703125,314.766357 786.683960,309.837402 782.491943,307.514587 
	C774.621338,303.153442 765.784729,301.294434 757.501160,297.997131 
	C755.201782,297.081848 752.547974,296.815674 751.000000,294.500000 
"/>
<path fill="none" opacity="1.000000" stroke="#000000" stroke-linecap="round" stroke-linejoin="round" stroke-width="2.000000"
	d="
M611.000000,299.000000 
	C611.261963,306.176636 613.258667,313.277588 610.667969,320.559753 
	C609.598572,323.565643 606.018188,324.610901 606.000000,328.000000 
"/>
<path fill="none" opacity="1.000000" stroke="#000000" stroke-linecap="round" stroke-linejoin="round" stroke-width="2.000000"
	d="
M532.000000,511.000000 
	C536.590454,520.974548 548.394958,519.774475 555.983276,514.973572 
	C557.268311,514.160583 558.333374,513.000000 559.500000,512.000000 
"/>
<path fill="none" opacity="1.000000" stroke="#000000" stroke-linecap="round" stroke-linejoin="round" stroke-width="2.000000"
	d="
M859.000000,214.500000 
	C860.435242,220.181870 862.790222,225.359604 866.436279,230.049530 
	C869.355530,233.804581 870.356567,238.056778 866.469299,241.969513 
	C865.091797,243.356079 866.000183,245.780807 864.000000,246.750000 
"/>
<path fill="none" opacity="1.000000" stroke="#000000" stroke-linecap="round" stroke-linejoin="round" stroke-width="2.000000"
	d="
M701.000000,369.500000 
	C693.501038,376.619324 684.472107,380.753387 674.487732,382.944000 
	C673.629822,383.132202 673.033264,383.399841 672.500000,384.000000 
"/>
<path fill="none" opacity="1.000000" stroke="#000000" stroke-linecap="round" stroke-linejoin="round" stroke-width="2.000000"
	d="
M584.500000,319.000000 
	C572.684265,320.298859 565.809692,327.746307 566.500000,338.500000 
"/>
<path fill="none" opacity="1.000000" stroke="#000000" stroke-linecap="round" stroke-linejoin="round" stroke-width="2.000000"
	d="
M752.000000,264.500000 
	C753.366333,264.701385 754.608765,264.668488 756.066345,265.360168 
	C762.580994,268.451538 769.497986,268.923218 776.497192,266.989746 
	C780.067505,266.003479 781.967957,263.047607 782.841980,259.955353 
	C783.610107,257.238037 783.413208,254.019089 780.500671,251.999008 
	C778.330444,250.493790 776.166687,249.579346 774.000000,252.000443 
	C776.918396,258.094574 775.195312,260.918427 768.499939,260.997101 
	C766.833496,261.016693 765.119751,261.253326 763.508362,260.954865 
	C757.458923,259.834595 753.502563,256.615021 753.250000,250.000000 
"/>
<path fill="none" opacity="1.000000" stroke="#000000" stroke-linecap="round" stroke-linejoin="round" stroke-width="2.000000"
	d="
M654.000000,277.500000 
	C656.758484,285.870575 662.686401,287.070099 672.507141,286.070343 
	C680.553284,285.251282 687.445618,282.426514 693.000000,276.500000 
"/>
<path fill="none" opacity="1.000000" stroke="#000000" stroke-linecap="round" stroke-linejoin="round" stroke-width="3.000000"
	d="
M642.500000,250.500000 
	C643.316772,245.736542 646.204590,243.697205 648.931763,246.078171 
	C649.539673,246.608932 650.249451,247.649124 650.050110,249.007355 
	C647.947205,263.337860 661.802002,276.812195 675.514526,274.072571 
	C678.939636,273.388214 681.357483,271.360382 684.000000,269.500000 
"/>
<path fill="none" opacity="1.000000" stroke="#000000" stroke-linecap="round" stroke-linejoin="round" stroke-width="2.000000"
	d="
M647.500000,200.500000 
	C651.348389,201.832184 654.021851,206.065125 653.499939,210.000000 
	C652.859741,214.827698 649.326721,218.067871 644.503662,218.537857 
	C642.149048,218.767334 639.833313,217.378799 637.500000,218.500000 
"/>
<path fill="none" opacity="1.000000" stroke="#000000" stroke-linecap="round" stroke-linejoin="round" stroke-width="2.000000"
	d="
M681.500000,215.500000 
	C689.093140,217.152618 694.079834,223.926559 694.531982,232.998398 
	C694.639954,235.163757 693.859375,237.408249 695.000000,239.500000 
"/>
<path fill="none" opacity="1.000000" stroke="#000000" stroke-linecap="round" stroke-linejoin="round" stroke-width="2.000000"
	d="
M673.000000,639.500000 
	C666.580505,633.794373 658.628418,632.408813 650.502014,631.482117 
	C649.500183,631.367859 648.353821,632.043823 647.500000,631.000000 
"/>
<path fill="none" opacity="1.000000" stroke="#000000" stroke-linecap="round" stroke-linejoin="round" stroke-width="3.000000"
	d="
M651.500000,201.500000 
	C657.260071,202.049820 661.440308,210.077942 658.397461,215.441833 
	C656.978821,217.942581 655.036194,220.513794 651.989746,221.467239 
	C649.329651,222.299774 646.441467,222.644577 645.007629,225.503830 
	C643.111633,229.284592 641.273193,233.378876 641.752197,237.470474 
	C642.057617,240.078766 640.531250,243.202469 643.000000,245.500000 
"/>
<path fill="none" opacity="1.000000" stroke="#000000" stroke-linecap="round" stroke-linejoin="round" stroke-width="2.000000"
	d="
M592.500000,262.000000 
	C589.270142,264.534576 585.371765,265.354248 581.492615,265.951996 
	C574.926453,266.963776 571.485901,262.503723 574.031555,256.424652 
	C570.984253,254.040787 568.375916,254.772156 565.997131,257.497528 
	C563.746887,260.075745 563.000244,265.189575 565.050903,267.453918 
	C569.432983,272.292755 575.062683,273.900360 581.502930,273.021545 
	C585.163757,272.522034 588.621948,271.426727 592.228333,269.905914 
	C593.978455,273.039795 591.671631,277.365173 595.000000,280.000000 
"/>
<path fill="none" opacity="1.000000" stroke="#000000" stroke-linecap="round" stroke-linejoin="round" stroke-width="2.000000"
	d="
M775.000000,268.000000 
	C776.695862,272.602814 775.170898,274.993408 770.503662,275.531708 
	C764.519531,276.221863 759.970093,272.776093 755.000000,270.500000 
"/>
<path fill="none" opacity="1.000000" stroke="#000000" stroke-linecap="round" stroke-linejoin="round" stroke-width="3.000000"
	d="
M495.500000,269.500000 
	C496.764801,272.256134 497.402588,274.644684 495.125336,277.596680 
	C492.661072,280.791107 495.173767,285.857758 499.001312,285.925476 
	C503.827209,286.010895 508.695862,286.513153 513.500000,285.500000 
"/>
<path fill="none" opacity="1.000000" stroke="#000000" stroke-linecap="round" stroke-linejoin="round" stroke-width="2.000000"
	d="
M747.000000,294.000000 
	C743.753174,300.046570 739.922424,305.815002 738.016907,312.504822 
	C737.408569,314.640625 737.000061,316.833344 736.500061,319.000000 
"/>
<path fill="none" opacity="1.000000" stroke="#000000" stroke-linecap="round" stroke-linejoin="round" stroke-width="2.000000"
	d="
M842.500000,250.000000 
	C844.230835,255.594376 852.661865,259.235291 859.450562,256.858734 
	C861.115723,256.275787 862.166687,255.537018 863.518616,256.996216 
	C863.336670,260.541138 859.781738,259.936920 858.000000,261.500000 
"/>
<path fill="none" opacity="1.000000" stroke="#000000" stroke-linecap="round" stroke-linejoin="round" stroke-width="3.000000"
	d="
M855.500000,367.000000 
	C852.833313,368.000000 849.942383,368.629944 847.548950,370.080750 
	C843.208313,372.711914 840.595825,376.554688 840.954285,382.003021 
	C841.084656,383.985382 841.400940,386.061188 840.500000,388.000000 
"/>
<path fill="none" opacity="1.000000" stroke="#000000" stroke-linecap="round" stroke-linejoin="round" stroke-width="3.000000"
	d="
M865.500000,246.500000 
	C869.000000,246.833344 872.507141,247.487183 875.997986,247.409210 
	C879.441772,247.332306 879.459473,249.581665 878.916321,251.476013 
	C876.333740,260.483917 868.181580,264.969421 858.500000,263.000000 
"/>
<path fill="none" opacity="1.000000" stroke="#000000" stroke-linecap="round" stroke-linejoin="round" stroke-width="2.000000"
	d="
M591.000000,285.500000 
	C592.166626,291.333344 593.453674,297.146179 594.450562,303.008423 
	C594.970093,306.063660 596.437012,306.580078 598.963623,305.518097 
	C597.974426,299.337311 596.987183,293.168671 595.999939,287.000000 
"/>
<path fill="none" opacity="1.000000" stroke="#000000" stroke-linecap="round" stroke-linejoin="round" stroke-width="2.000000"
	d="
M741.000000,321.000000 
	C740.333313,321.333344 739.223267,322.100159 739.064087,321.937378 
	C733.371399,316.114471 725.247986,317.591644 718.479248,315.055450 
	C716.615906,314.357269 714.500000,314.333344 712.500000,314.000000 
"/>
<path fill="none" opacity="1.000000" stroke="#000000" stroke-linecap="round" stroke-linejoin="round" stroke-width="3.000000"
	d="
M681.000000,202.000000 
	C678.995361,209.994247 677.709839,211.047791 669.500244,210.972595 
	C666.833984,210.948181 664.116333,211.471588 661.500000,210.500000 
"/>
<path fill="none" opacity="1.000000" stroke="#000000" stroke-linecap="round" stroke-linejoin="round" stroke-width="3.000000"
	d="
M650.500000,280.500000 
	C651.987915,285.616516 654.091553,290.258759 660.003662,291.482269 
	C667.417480,293.016541 674.327209,292.538971 679.500000,286.000000 
"/>
<path fill="none" opacity="1.000000" stroke="#000000" stroke-linecap="round" stroke-linejoin="round" stroke-width="2.000000"
	d="
M639.000000,353.000000 
	C640.333801,356.880676 643.204834,359.875183 645.183533,363.396881 
	C648.412720,369.144501 650.705811,374.931458 650.408203,381.495850 
	C650.315247,383.544067 650.930359,385.004211 652.000000,386.500000 
"/>
<path fill="none" opacity="1.000000" stroke="#000000" stroke-linecap="round" stroke-linejoin="round" stroke-width="2.000000"
	d="
M658.500000,303.000000 
	C665.621338,307.765442 668.405579,314.625610 669.239868,322.976044 
	C669.520020,325.779785 667.612244,326.606934 666.755981,327.829041 
	C665.639648,329.422241 664.597046,326.139221 663.000000,326.000000 
"/>
<path fill="none" opacity="1.000000" stroke="#000000" stroke-linecap="round" stroke-linejoin="round" stroke-width="3.000000"
	d="
M649.500000,265.000000 
	C647.864929,266.873566 646.609741,268.927307 646.504333,271.500183 
	C646.440002,273.070312 646.704773,274.585388 648.507080,274.966492 
	C650.389954,275.364624 650.452942,274.022491 651.164062,272.580902 
	C652.684692,269.497986 652.132080,267.260162 650.000000,265.000000 
"/>
<path fill="none" opacity="1.000000" stroke="#000000" stroke-linecap="round" stroke-linejoin="round" stroke-width="2.000000"
	d="
M593.500000,283.000000 
	C601.312561,287.843719 601.169922,296.679504 603.897339,304.038055 
	C604.390076,305.367493 604.564636,306.512451 606.000000,307.000000 
"/>
<path fill="none" opacity="1.000000" stroke="#000000" stroke-linecap="round" stroke-linejoin="round" stroke-width="4.000000"
	d="
M684.500000,384.500000 
	C674.000000,385.666656 663.500000,386.833344 653.000000,388.000000 
"/>
<path fill="none" opacity="1.000000" stroke="#000000" stroke-linecap="round" stroke-linejoin="round" stroke-width="2.000000"
	d="
M679.000000,607.000000 
	C674.031494,607.843262 669.813660,611.059265 664.503906,611.177002 
	C662.214355,611.227783 659.824951,611.216125 657.500000,611.500000 
"/>
<path fill="none" opacity="1.000000" stroke="#000000" stroke-linecap="round" stroke-linejoin="round" stroke-width="2.000000"
	d="
M659.000000,216.000000 
	C666.166687,217.537766 673.333313,218.550674 680.500000,216.000000 
"/>
<path fill="none" opacity="1.000000" stroke="#000000" stroke-linecap="round" stroke-linejoin="round" stroke-width="2.000000"
	d="
M574.000000,274.000000 
	C572.641846,279.449646 575.803711,283.328522 580.997559,282.484802 
	C585.341858,281.779114 588.863708,279.472351 592.000000,276.500000 
"/>
<path fill="none" opacity="1.000000" stroke="#000000" stroke-linecap="round" stroke-linejoin="round" stroke-width="3.000000"
	d="
M493.500000,267.000000 
	C486.413330,266.756744 479.388824,267.166046 472.500000,269.000000 
"/>
<path fill="none" opacity="1.000000" stroke="#000000" stroke-linecap="round" stroke-linejoin="round" stroke-width="3.000000"
	d="
M562.000000,372.000000 
	C560.500000,376.000000 558.917725,379.971771 557.531067,384.010651 
	C556.707397,386.409668 555.607666,388.650330 556.373047,391.533691 
	C557.194458,394.627838 554.696655,396.660004 552.500000,398.500000 
"/>
<path fill="none" opacity="1.000000" stroke="#000000" stroke-linecap="round" stroke-linejoin="round" stroke-width="2.000000"
	d="
M629.500000,258.500000 
	C622.637024,259.505829 616.809082,262.784210 611.530640,267.038025 
	C607.675293,270.144989 604.250244,273.723236 600.923096,277.431030 
	C597.845764,280.860443 592.515015,281.239777 589.491821,284.993439 
	C589.050842,285.540955 588.500000,286.000000 588.000000,286.500000 
"/>
<path fill="none" opacity="1.000000" stroke="#000000" stroke-linecap="round" stroke-linejoin="round" stroke-width="2.000000"
	d="
M651.000000,503.500000 
	C647.584900,507.633698 643.991211,511.687897 642.532654,517.008972 
	C641.567871,520.528625 638.455872,520.136597 636.000000,521.000000 
"/>
<path fill="none" opacity="1.000000" stroke="#000000" stroke-linecap="round" stroke-linejoin="round" stroke-width="3.000000"
	d="
M619.500000,435.000000 
	C627.336914,434.694641 634.982727,435.854767 642.500000,438.000000 
"/>
<path fill="none" opacity="1.000000" stroke="#000000" stroke-linecap="round" stroke-linejoin="round" stroke-width="2.000000"
	d="
M636.500000,259.000000 
	C631.343201,259.215851 627.072083,261.585663 623.597839,265.096832 
	C622.200928,266.508698 620.249756,269.000000 623.933105,270.767670 
	C622.079590,273.405457 620.128357,274.244904 617.501160,272.997528 
	C613.346069,271.024689 615.503052,267.853607 616.000000,265.000000 
"/>
<path fill="none" opacity="1.000000" stroke="#000000" stroke-linecap="round" stroke-linejoin="round" stroke-width="2.000000"
	d="
M862.500000,248.000000 
	C856.101440,249.819016 849.554993,249.694382 842.999573,249.515747 
	C841.998291,249.488449 842.717957,248.807678 842.500000,248.500000 
"/>
<path fill="none" opacity="1.000000" stroke="#000000" stroke-linecap="round" stroke-linejoin="round" stroke-width="2.000000"
	d="
M496.500000,257.000000 
	C491.333344,254.833328 486.196136,252.589844 480.968262,250.582672 
	C480.182526,250.281006 478.195984,248.754593 478.000000,251.500000 
"/>
<path fill="none" opacity="1.000000" stroke="#000000" stroke-linecap="round" stroke-linejoin="round" stroke-width="3.000000"
	d="
M555.500000,374.500000 
	C554.962952,380.515350 552.791504,386.157166 551.513794,392.003021 
	C551.409485,392.480225 551.500000,393.000000 551.500000,393.500000 
"/>
<path fill="none" opacity="1.000000" stroke="#000000" stroke-linecap="round" stroke-linejoin="round" stroke-width="2.000000"
	d="
M588.000000,291.500000 
	C588.500000,295.333344 589.003357,299.166229 589.499023,303.000122 
	C589.901611,306.114807 591.307373,307.543243 594.500000,306.000000 
"/>
<path fill="none" opacity="1.000000" stroke="#000000" stroke-linecap="round" stroke-linejoin="round" stroke-width="2.000000"
	d="
M859.000000,185.500000 
	C858.264587,193.235718 856.912170,200.736389 851.000000,206.500000 
"/>
<path fill="none" opacity="1.000000" stroke="#000000" stroke-linecap="round" stroke-linejoin="round" stroke-width="2.000000"
	d="
M680.500000,215.000000 
	C674.531006,214.108658 668.519836,213.976654 662.500000,214.000000 
"/>
<path fill="none" opacity="1.000000" stroke="#000000" stroke-linecap="round" stroke-linejoin="round" stroke-width="2.000000"
	d="
M566.500000,373.500000 
	C561.890564,378.278625 561.414185,385.123779 558.000000,390.500000 
"/>
<path fill="none" opacity="1.000000" stroke="#000000" stroke-linecap="round" stroke-linejoin="round" stroke-width="2.000000"
	d="
M643.000000,251.500000 
	C645.382263,254.785233 644.694397,259.186890 647.004761,262.498291 
	C640.908325,270.379517 640.792114,274.447449 646.500000,280.000000 
"/>
<path fill="none" opacity="1.000000" stroke="#000000" stroke-linecap="round" stroke-linejoin="round" stroke-width="3.000000"
	d="
M845.000000,255.500000 
	C839.670715,257.267700 834.365784,258.974274 830.438599,263.446106 
	C829.068176,265.006622 824.700806,263.084320 825.500000,267.500000 
"/>
<path fill="none" opacity="1.000000" stroke="#000000" stroke-linecap="round" stroke-linejoin="round" stroke-width="2.000000"
	d="
M479.500000,258.000000 
	C483.682831,261.572021 488.937500,262.553833 494.557495,264.409088 
	C495.657471,265.205750 492.473114,267.487457 495.000000,268.500000 
"/>
<path fill="none" opacity="1.000000" stroke="#000000" stroke-linecap="round" stroke-linejoin="round" stroke-width="2.000000"
	d="
M517.000000,250.000000 
	C514.000000,251.500000 511.023132,253.048843 507.992828,254.484879 
	C505.474426,255.678329 503.165741,257.418304 499.975616,256.594421 
	C498.600708,256.239380 496.961426,256.920380 497.000000,259.000000 
"/>
<path fill="none" opacity="1.000000" stroke="#000000" stroke-linecap="round" stroke-linejoin="round" stroke-width="2.000000"
	d="
M495.000000,260.500000 
	C491.430786,259.742279 487.945221,258.738403 484.471985,257.584320 
	C481.303040,256.531372 477.651855,258.648254 474.490906,256.126892 
	C474.835205,254.723267 475.331604,253.036072 477.000000,252.000000 
"/>
<path fill="none" opacity="1.000000" stroke="#000000" stroke-linecap="round" stroke-linejoin="round" stroke-width="2.000000"
	d="
M670.000000,194.000000 
	C664.397278,194.752701 659.530762,196.879684 656.000000,201.500000 
"/>
<path fill="none" opacity="1.000000" stroke="#000000" stroke-linecap="round" stroke-linejoin="round" stroke-width="2.000000"
	d="
M579.500000,342.000000 
	C583.055969,344.832977 587.218994,347.002380 588.646057,351.957947 
	C588.968445,353.077423 587.964111,353.666656 588.500000,354.500000 
"/>
<path fill="none" opacity="1.000000" stroke="#000000" stroke-linecap="round" stroke-linejoin="round" stroke-width="2.000000"
	d="
M487.500000,272.000000 
	C489.039642,276.380066 490.241028,280.835327 490.500000,285.500000 
"/>
<path fill="none" opacity="1.000000" stroke="#000000" stroke-linecap="round" stroke-linejoin="round" stroke-width="3.000000"
	d="
M674.000000,197.500000 
	C680.478271,197.743378 685.281921,205.064102 683.490234,211.997467 
	C683.227173,213.015625 682.833313,213.999985 682.500000,214.999985 
"/>
<path fill="none" opacity="1.000000" stroke="#000000" stroke-linecap="round" stroke-linejoin="round" stroke-width="2.000000"
	d="
M838.000000,275.000000 
	C842.899292,275.878235 844.857483,278.448395 846.000000,285.500000 
"/>
<path fill="none" opacity="1.000000" stroke="#000000" stroke-linecap="round" stroke-linejoin="round" stroke-width="2.000000"
	d="
M679.000000,611.000000 
	C680.485046,615.338501 685.314819,618.519226 683.500000,624.000000 
"/>
<path fill="none" opacity="1.000000" stroke="#000000" stroke-linecap="round" stroke-linejoin="round" stroke-width="2.000000"
	d="
M474.000000,257.500000 
	C470.511841,265.986206 470.137939,274.347809 475.000000,282.500000 
"/>
<path fill="none" opacity="1.000000" stroke="#000000" stroke-linecap="round" stroke-linejoin="round" stroke-width="2.000000"
	d="
M501.500000,277.500000 
	C505.628387,276.972900 509.385590,279.415405 513.500000,279.000000 
"/>
<path fill="none" opacity="1.000000" stroke="#000000" stroke-linecap="round" stroke-linejoin="round" stroke-width="3.000000"
	d="
M514.000000,277.000000 
	C510.166656,275.666656 506.326508,274.352478 502.503235,272.990906 
	C500.895325,272.418304 499.465668,271.174316 500.085724,269.532379 
	C501.566284,265.611938 500.253632,261.320038 502.000000,257.500000 
"/>
<path fill="none" opacity="1.000000" stroke="#000000" stroke-linecap="round" stroke-linejoin="round" stroke-width="3.000000"
	d="
M513.000000,266.500000 
	C509.000000,266.833344 505.000000,267.166687 501.000000,267.500000 
"/>
<path fill="none" opacity="1.000000" stroke="#000000" stroke-linecap="round" stroke-linejoin="round" stroke-width="3.000000"
	d="
M655.500000,268.000000 
	C654.786682,271.988495 654.958191,276.256256 651.051880,279.071991 
	C649.892578,279.907715 648.889587,280.520081 647.500000,280.500000 
"/>
<path fill="none" opacity="1.000000" stroke="#000000" stroke-linecap="round" stroke-linejoin="round" stroke-width="3.000000"
	d="
M692.000000,250.500000 
	C690.666687,255.833328 689.333313,261.166656 688.000000,266.500000 
"/>
<path fill="none" opacity="1.000000" stroke="#000000" stroke-linecap="round" stroke-linejoin="round" stroke-width="2.000000"
	d="
M846.000000,202.000000 
	C844.476257,205.729828 847.181091,209.827347 845.000000,213.500000 
"/>
<path fill="none" opacity="1.000000" stroke="#000000" stroke-linecap="round" stroke-linejoin="round" stroke-width="3.000000"
	d="
M605.500000,235.000000 
	C602.370850,237.694580 601.060303,240.934769 602.500000,245.000000 
"/>
<path fill="none" opacity="1.000000" stroke="#000000" stroke-linecap="round" stroke-linejoin="round" stroke-width="2.000000"
	d="
M853.500000,246.000000 
	C850.299255,247.329559 846.504700,245.690063 843.500000,248.000000 
"/>
<path fill="none" opacity="1.000000" stroke="#000000" stroke-linecap="round" stroke-linejoin="round" stroke-width="2.000000"
	d="
M525.000000,298.500000 
	C522.839661,301.759521 519.876282,303.814423 516.000000,304.500000 
"/>
<path fill="none" opacity="1.000000" stroke="#000000" stroke-linecap="round" stroke-linejoin="round" stroke-width="3.000000"
	d="
M658.500000,616.500000 
	C657.910400,619.979797 655.931091,622.874512 654.500000,626.000000 
"/>
<path fill="none" opacity="1.000000" stroke="#000000" stroke-linecap="round" stroke-linejoin="round" stroke-width="4.000000"
	d="
M657.500000,494.500000 
	C656.686523,498.056549 654.964172,500.931458 651.500000,502.500000 
"/>
<path fill="none" opacity="1.000000" stroke="#000000" stroke-linecap="round" stroke-linejoin="round" stroke-width="4.000000"
	d="
M842.000000,209.500000 
	C841.223999,212.669586 845.212280,214.350342 844.500000,217.500000 
"/>
<path fill="none" opacity="1.000000" stroke="#000000" stroke-linecap="round" stroke-linejoin="round" stroke-width="2.000000"
	d="
M826.000000,268.500000 
	C827.878601,271.419006 829.265259,274.685333 832.000000,277.000000 
"/>
<path fill="none" opacity="1.000000" stroke="#000000" stroke-linecap="round" stroke-linejoin="round" stroke-width="2.000000"
	d="
M634.500000,214.500000 
	C636.556885,219.416611 640.309509,222.138641 645.500000,223.000000 
"/>
<path fill="none" opacity="1.000000" stroke="#000000" stroke-linecap="round" stroke-linejoin="round" stroke-width="3.000000"
	d="
M830.000000,265.000000 
	C831.677612,268.240448 833.991760,270.923859 837.000000,273.000000 
"/>
<path fill="none" opacity="1.000000" stroke="#000000" stroke-linecap="round" stroke-linejoin="round" stroke-width="2.000000"
	d="
M742.000000,236.000000 
	C742.626465,238.676712 744.301819,241.091202 744.000000,244.000000 
"/>
<path fill="none" opacity="1.000000" stroke="#000000" stroke-linecap="round" stroke-linejoin="round" stroke-width="8.000000"
	d="
M476.500000,274.000000 
	C476.833344,274.166656 477.163422,274.340210 477.500488,274.498993 
	C485.097473,278.077301 485.227295,278.621674 480.000610,284.998138 
	C478.500793,284.497498 477.000397,283.998749 475.500000,283.500000 
"/>
<path fill="none" opacity="1.000000" stroke="#000000" stroke-linecap="round" stroke-linejoin="round" stroke-width="3.000000"
	d="
M690.000000,262.000000 
	C693.862427,262.242950 696.370300,265.097931 698.308838,267.645477 
	C700.143738,270.056915 699.240845,273.473877 697.000000,276.000000 
"/>
<path fill="none" opacity="1.000000" stroke="#000000" stroke-linecap="round" stroke-linejoin="round" stroke-width="2.000000"
	d="
M512.500000,544.500000 
	C511.000000,546.833313 509.564667,549.211609 507.983459,551.488525 
	C506.052979,554.268433 504.000000,554.231628 502.000000,551.500000 
"/>
<path fill="none" opacity="1.000000" stroke="#000000" stroke-linecap="round" stroke-linejoin="round" stroke-width="2.000000"
	d="
M514.000000,258.000000 
	C509.342072,257.973633 507.428253,262.749146 503.500305,264.000916 
	C502.998169,264.160950 502.500000,264.333313 502.000000,264.499969 
"/>
<path fill="none" opacity="1.000000" stroke="#000000" stroke-linecap="round" stroke-linejoin="round" stroke-width="3.000000"
	d="
M598.000000,253.000000 
	C594.752808,258.079834 600.442810,261.835632 600.000000,266.500000 
"/>
<path fill="none" opacity="1.000000" stroke="#000000" stroke-linecap="round" stroke-linejoin="round" stroke-width="3.000000"
	d="
M483.000000,277.000000 
	C484.822327,275.138489 483.407837,272.530029 484.388885,270.361938 
	C488.579620,270.566681 491.815002,272.014832 493.500000,276.000000 
"/>
<path fill="none" opacity="1.000000" stroke="#000000" stroke-linecap="round" stroke-linejoin="round" stroke-width="3.000000"
	d="
M611.500000,236.500000 
	C609.953064,238.392197 608.308716,240.246948 609.000000,243.000000 
"/>
<path fill="none" opacity="1.000000" stroke="#000000" stroke-linecap="round" stroke-linejoin="round" stroke-width="2.000000"
	d="
M516.500000,545.500000 
	C515.333313,547.666687 514.166626,549.833313 513.000000,552.000000 
"/>
<path fill="none" opacity="1.000000" stroke="#000000" stroke-linecap="round" stroke-linejoin="round" stroke-width="3.000000"
	d="
M696.000000,260.000000 
	C696.421265,262.019684 699.091797,263.477051 697.500000,266.000000 
"/>
<path fill="none" opacity="1.000000" stroke="#000000" stroke-linecap="round" stroke-linejoin="round" stroke-width="3.000000"
	d="
M857.500000,262.500000 
	C855.500000,261.467773 853.500000,262.290497 851.500000,262.500000 
"/>
<path fill="none" opacity="1.000000" stroke="#000000" stroke-linecap="round" stroke-linejoin="round" stroke-width="3.000000"
	d="
M845.000000,199.500000 
	C846.729004,202.680664 850.900330,204.233093 851.000000,208.500000 
"/>
<path fill="none" opacity="1.000000" stroke="#000000" stroke-linecap="round" stroke-linejoin="round" stroke-width="3.000000"
	d="
M520.500000,545.500000 
	C517.006165,552.296692 515.411621,553.226868 508.500000,552.500000 
"/>
<path fill="none" opacity="1.000000" stroke="#000000" stroke-linecap="round" stroke-linejoin="round" stroke-width="2.000000"
	d="
M521.000000,289.500000 
	C521.160339,291.782684 523.450684,292.408722 524.500000,294.000000 
"/>
<path fill="none" opacity="1.000000" stroke="#000000" stroke-linecap="round" stroke-linejoin="round" stroke-width="2.000000"
	d="
M693.500000,254.500000 
	C693.072021,256.380676 694.989929,257.088348 695.500000,258.500000 
"/>
<path fill="none" opacity="1.000000" stroke="#000000" stroke-linecap="round" stroke-linejoin="round" stroke-width="2.000000"
	d="
M749.000000,246.000000 
	C749.306458,247.693542 751.146606,247.853409 752.000000,249.000000 
"/>
<path fill="none" opacity="1.000000" stroke="#000000" stroke-linecap="round" stroke-linejoin="round" stroke-width="2.000000"
	d="
M494.500000,264.000000 
	C496.679352,262.938416 494.305328,260.055481 496.503418,259.021698 
	C498.009521,259.830627 497.382263,261.271729 497.500000,262.500000 
"/>
</svg>