<svg version="1.1" id="Layer_1" xmlns="http://www.w3.org/2000/svg" xmlns:xlink="http://www.w3.org/1999/xlink" x="0px" y="0px"
	 width="100%" viewBox="0 0 1982 2176" enable-background="new 0 0 1982 2176" xml:space="preserve">
<path fill="none" opacity="1.000000" stroke="#000000" stroke-linecap="round" stroke-linejoin="round" stroke-width="3.000000"
	d="
M720.000000,1302.000000 
	C696.996887,1316.054688 682.246033,1337.540649 669.115234,1360.067139 
	C635.247375,1418.168579 611.919373,1480.623169 592.759399,1544.928345 
	C580.538696,1585.943481 572.746216,1627.685059 568.323120,1670.033691 
	C566.288879,1689.510376 565.140686,1709.412354 569.030090,1728.994019 
	C572.835327,1748.151733 579.476562,1756.948853 602.989624,1744.979614 
	C620.345825,1736.144653 635.459290,1723.534180 653.015259,1715.031494 
	C657.579895,1712.820923 662.216248,1710.614502 667.044983,1709.148071 
	C669.838318,1708.299805 672.947998,1706.435547 676.131653,1709.878296 
	C679.181763,1713.176758 678.709534,1717.101685 677.747375,1719.913574 
	C675.152161,1727.499390 671.472351,1734.734009 667.961243,1741.981201 
	C664.388062,1749.356567 662.015381,1757.063232 659.882141,1764.968140 
	C655.637817,1780.695923 661.409302,1792.211548 674.026489,1800.961792 
	C697.597168,1817.308228 724.732666,1824.891602 752.007935,1831.969482 
	C776.970459,1838.447144 802.304810,1843.671631 826.934143,1851.215088 
	C872.859924,1865.281372 914.179138,1888.416870 952.078430,1917.899170 
	C963.444519,1926.741211 974.970398,1935.638184 988.138245,1941.699707 
	C990.319153,1942.703613 993.343445,1945.760742 997.071838,1943.100708 
	C1001.277283,1940.100464 999.804993,1936.644531 999.007019,1932.998413 
	C995.587646,1917.373901 987.954956,1903.452759 979.822876,1890.107910 
	C951.366760,1843.410522 915.636230,1802.458984 878.090210,1762.914307 
	C841.888367,1724.785156 802.849365,1689.429565 768.022217,1649.980347 
	C742.128113,1620.649292 719.199890,1589.435547 705.961670,1552.013550 
	C686.857666,1498.010010 690.067810,1445.037354 713.075806,1393.033569 
	C721.132812,1374.822876 729.117310,1356.515259 732.740417,1336.951904 
	C735.815125,1320.349121 736.722412,1302.729980 729.645447,1287.161133 
	C719.186340,1264.151978 696.143433,1259.194458 672.887085,1270.773193 
	C644.542664,1284.885010 621.106445,1305.709961 603.955566,1330.656982 
	C589.019775,1352.381958 573.795898,1374.092773 558.883362,1395.920288 
	C544.529907,1416.929443 526.957092,1435.122437 507.107605,1451.133423 
	C504.642700,1453.121704 502.463440,1452.788696 500.000000,1453.000000 
"/>
<path fill="none" opacity="1.000000" stroke="#000000" stroke-linecap="round" stroke-linejoin="round" stroke-width="3.000000"
	d="
M959.000000,2177.000000 
	C958.279541,2165.968018 959.468262,2154.997314 959.859192,2143.995117 
	C960.464478,2126.959229 959.580688,2109.969482 962.823303,2092.966309 
	C969.526672,2057.815918 980.707886,2024.391724 995.788025,1991.901611 
	C1019.916321,1939.917358 1050.880127,1892.152100 1083.004028,1845.002808 
	C1122.964600,1786.350830 1167.149902,1730.927246 1211.956177,1675.964233 
	C1238.669556,1643.195679 1266.207031,1611.129883 1290.204102,1576.139893 
	C1319.397339,1533.573242 1337.907837,1487.339966 1342.893066,1435.989624 
	C1346.300659,1400.889771 1344.051514,1366.687012 1328.410889,1333.804565 
	C1320.872070,1317.955078 1318.152222,1300.247070 1317.361206,1282.027710 
	C1316.722656,1267.323730 1321.030640,1255.024536 1327.237183,1243.123657 
	C1336.241943,1225.856934 1352.240479,1221.630005 1370.006714,1229.985718 
	C1387.613525,1238.266724 1401.733765,1251.201416 1416.017944,1263.979980 
	C1451.196167,1295.450073 1478.855225,1333.768188 1510.853516,1368.136353 
	C1514.543457,1372.099609 1518.035400,1376.402466 1522.142456,1379.829224 
	C1525.547241,1382.670044 1528.433228,1385.318115 1535.187500,1383.881958 
	C1542.736694,1382.276733 1549.380859,1390.942505 1554.896484,1397.092773 
	C1556.936035,1399.366943 1557.893799,1402.397095 1560.964844,1404.064697 
	C1585.114380,1417.176025 1597.180542,1440.743530 1609.763550,1463.132935 
	C1643.322266,1522.845581 1664.114136,1587.358398 1679.145508,1653.967163 
	C1685.935913,1684.057617 1691.399292,1714.369751 1693.604004,1745.028442 
	C1694.937988,1763.577515 1696.291626,1782.643677 1690.244507,1801.080200 
	C1689.584595,1803.092163 1688.779541,1805.101318 1687.918945,1806.962524 
	C1682.667480,1818.321167 1678.265381,1817.503052 1670.097046,1811.859619 
	C1659.726318,1804.694824 1652.094116,1794.543091 1644.012451,1784.989380 
	C1612.401001,1747.619507 1578.164917,1713.138428 1534.932373,1689.121704 
	C1513.796753,1677.380249 1491.080688,1668.806152 1466.973755,1666.247803 
	C1436.033081,1662.964233 1413.652832,1677.726929 1396.940430,1702.960571 
	C1374.225830,1737.256714 1362.556030,1775.955566 1352.127808,1815.034058 
	C1336.007568,1875.443115 1328.067139,1937.429565 1317.951782,1998.992065 
	C1309.654907,2049.486084 1302.206787,2100.179688 1286.019775,2149.006592 
	C1283.702271,2155.997314 1281.011597,2162.890869 1276.870117,2168.910645 
	C1273.277222,2174.132812 1268.843506,2173.255615 1267.152588,2166.958984 
	C1265.500366,2160.806396 1264.037109,2154.539062 1263.941650,2148.000732 
	C1263.099243,2090.293701 1272.457642,2034.232422 1288.751953,1978.926880 
	C1301.459595,1935.794678 1317.960815,1893.987793 1331.165649,1851.050903 
	C1335.319580,1837.544067 1338.460938,1823.969604 1339.896973,1809.989380 
	C1340.273071,1806.327515 1341.095703,1802.224976 1338.000000,1799.000000 
"/>
<path fill="none" opacity="1.000000" stroke="#000000" stroke-linecap="round" stroke-linejoin="round" stroke-width="3.000000"
	d="
M600.000000,1333.000000 
	C593.493835,1334.098755 590.725952,1339.568481 586.977051,1343.980469 
	C562.021301,1373.351440 536.941345,1402.616943 512.026978,1432.022827 
	C501.018738,1445.015625 494.299835,1461.638306 479.000000,1471.000000 
	C448.609283,1516.076050 419.389954,1561.737915 399.898743,1612.961426 
	C378.738983,1668.569824 362.607513,1725.663940 346.730408,1782.925293 
	C335.413971,1823.738647 323.130920,1864.348755 308.089478,1904.033936 
	C305.781219,1910.124146 304.173828,1916.584839 303.106384,1923.017700 
	C301.112579,1935.033203 304.111084,1942.531616 318.027374,1943.663208 
	C397.096619,1950.092285 465.464386,1929.841309 515.211609,1863.157837 
	C530.919434,1842.102417 543.034119,1818.792725 558.968872,1797.976196 
	C565.229004,1789.798218 571.684204,1781.953979 580.989258,1776.979858 
	C590.194153,1772.059326 597.714111,1772.852661 604.984436,1780.015869 
	C617.653870,1792.498413 623.207764,1808.890259 628.935242,1825.022949 
	C655.842651,1900.814209 671.787659,1978.964600 679.065857,2058.993896 
	C681.699463,2087.952637 683.916260,2116.953369 682.658386,2145.985107 
	C682.213257,2156.258057 684.065613,2166.963379 680.000000,2177.000000 
"/>
<path fill="none" opacity="1.000000" stroke="#000000" stroke-linecap="round" stroke-linejoin="round" stroke-width="3.000000"
	d="
M1366.000000,921.000000 
	C1369.095703,924.225037 1367.947876,928.267273 1367.958984,932.000122 
	C1368.036621,957.999878 1368.919312,984.039429 1367.807007,1009.991760 
	C1365.547729,1062.707642 1364.474976,1115.545044 1350.189697,1167.052612 
	C1339.654663,1205.037964 1321.200806,1238.743652 1297.876953,1269.907959 
	C1270.637695,1306.304077 1239.826172,1339.600586 1205.963623,1369.959473 
	C1166.648682,1405.206665 1122.137085,1431.863159 1069.932617,1441.640381 
	C987.438354,1457.090820 910.987671,1440.331787 842.039062,1391.944336 
	C803.816956,1365.120361 770.914429,1332.607300 741.970276,1296.023560 
	C739.459045,1292.849609 736.421448,1290.186523 732.000000,1290.000000 
"/>
<path fill="none" opacity="1.000000" stroke="#000000" stroke-linecap="round" stroke-linejoin="round" stroke-width="3.000000"
	d="
M1200.000000,299.000000 
	C1179.162231,292.505249 1159.083008,283.922058 1138.069214,277.763733 
	C1095.761841,265.365143 1053.228027,259.863129 1008.969727,263.645905 
	C953.088013,268.422150 898.883911,279.904358 846.028076,298.081543 
	C793.978943,315.981262 747.073792,342.434570 707.896240,381.897003 
	C682.930542,407.044189 657.812805,432.052063 636.138672,460.107147 
	C616.268494,485.827240 599.092468,513.233459 593.021484,546.003967 
	C588.458496,570.634338 592.284668,594.797363 596.906006,619.017944 
	C603.861572,655.472290 609.942810,692.081238 614.058716,728.993469 
	C614.992920,737.371277 616.019836,745.837402 618.162720,753.957031 
	C620.880432,764.254761 626.991333,772.112366 637.997437,775.009705 
	C646.676880,777.294617 655.333313,779.666626 664.000000,782.000000 
"/>
<path fill="none" opacity="1.000000" stroke="#000000" stroke-linecap="round" stroke-linejoin="round" stroke-width="3.000000"
	d="
M853.000000,1118.000000 
	C839.449829,1118.892700 840.169800,1130.855103 838.326538,1139.073242 
	C832.135681,1166.673950 836.455322,1192.352539 854.875549,1215.100830 
	C865.942566,1228.768066 872.842773,1244.976562 880.141052,1260.935547 
	C890.594177,1283.793213 908.823120,1296.174927 933.978149,1299.182617 
	C946.440735,1300.672852 957.660706,1297.545654 967.858154,1291.750366 
	C978.786743,1285.539673 978.857422,1268.847778 968.964661,1258.032349 
	C963.034790,1251.549316 954.870056,1247.631348 948.957886,1241.037720 
	C946.071106,1237.818237 942.805420,1234.324097 944.221924,1230.073975 
	C945.740601,1225.517334 950.936890,1225.742310 955.002747,1225.015259 
	C970.241699,1222.289795 985.165833,1226.319458 999.947205,1228.378784 
	C1023.606506,1231.674927 1046.460815,1231.407715 1069.033203,1223.090210 
	C1072.891113,1221.668823 1078.132568,1219.989258 1080.718872,1224.173706 
	C1082.715698,1227.404419 1079.473877,1230.967285 1077.080078,1234.061890 
	C1070.514893,1242.549316 1062.977783,1250.664307 1058.297729,1260.146973 
	C1049.961670,1277.036743 1053.063477,1289.957520 1066.151733,1297.745117 
	C1073.877808,1302.342041 1083.425659,1301.134766 1091.971069,1298.890015 
	C1125.087646,1290.190063 1147.179199,1268.566284 1160.924561,1237.966064 
	C1170.463135,1216.730713 1172.516846,1193.942139 1172.951050,1170.999023 
	C1173.215820,1157.004028 1173.000000,1143.000000 1173.000000,1129.000000 
"/>
<path fill="none" opacity="1.000000" stroke="#000000" stroke-linecap="round" stroke-linejoin="round" stroke-width="3.000000"
	d="
M1314.000000,1274.000000 
	C1306.172485,1289.408569 1301.646362,1306.116089 1295.089111,1322.036743 
	C1272.571289,1376.709229 1242.441650,1426.299194 1197.901489,1465.889160 
	C1161.124023,1498.579224 1118.471680,1520.761719 1069.945557,1529.704834 
	C1041.979614,1534.858643 1013.603516,1535.292725 984.959900,1532.396240 
	C955.836121,1529.451050 928.251770,1521.700806 902.185486,1509.600464 
	C880.475220,1499.521973 860.891052,1485.359253 842.916260,1469.092529 
	C802.808167,1432.794922 777.136108,1386.803711 754.002502,1338.998779 
	C749.651489,1330.007324 745.401611,1320.966064 740.956970,1312.021362 
	C739.676025,1309.443359 739.220642,1305.779419 735.000000,1306.000000 
"/>
<path fill="none" opacity="1.000000" stroke="#000000" stroke-linecap="round" stroke-linejoin="round" stroke-width="3.000000"
	d="
M1329.000000,479.000000 
	C1302.523438,485.344727 1285.495728,471.101318 1271.048584,451.963287 
	C1249.174927,422.987213 1229.632568,392.207184 1203.045898,366.951721 
	C1168.479492,334.116180 1127.395386,317.645538 1080.032959,313.612457 
	C1052.061157,311.230591 1024.515625,312.606354 997.037170,316.278259 
	C979.178650,318.664642 961.096863,321.481384 944.862183,330.758789 
	C942.261536,332.244965 940.394226,333.606384 938.469055,336.343079 
	C944.194397,343.555725 952.525269,340.007477 959.036560,340.595154 
	C982.650146,342.726410 1006.542358,342.204498 1029.977051,346.136749 
	C1068.824707,352.655334 1106.226807,362.790375 1132.992676,395.006042 
	C1141.357178,405.073578 1147.912842,416.106506 1151.020874,428.994965 
	C1153.276733,438.349548 1149.082764,442.735809 1138.994873,442.078644 
	C1130.986328,441.556915 1123.931396,438.559814 1117.005615,434.989044 
	C1094.609985,423.442108 1073.108643,410.054443 1049.930420,400.162903 
	C1014.556152,385.066589 978.072327,374.791077 939.007812,373.715271 
	C892.460083,372.433380 848.469116,381.797211 806.000000,400.000000 
"/>
<path fill="none" opacity="1.000000" stroke="#000000" stroke-linecap="round" stroke-linejoin="round" stroke-width="3.000000"
	d="
M1314.000000,834.000000 
	C1314.787964,844.243469 1309.611084,853.235291 1307.875732,862.977844 
	C1303.988159,884.804810 1297.070679,905.637573 1288.269043,926.115662 
	C1275.886475,954.924927 1253.383301,968.296936 1223.981567,971.847107 
	C1197.323120,975.065918 1170.819458,974.128601 1143.935547,970.474121 
	C1096.178345,963.982117 1067.058228,938.077820 1052.882568,893.036926 
	C1048.297363,878.468201 1042.280640,864.352661 1037.015137,849.994446 
	C1031.921509,836.104980 1018.695618,825.522766 1006.998169,825.949402 
	C989.580322,826.584656 978.812500,836.815430 973.894653,849.960571 
	C967.573608,866.856384 962.716553,884.216248 956.227905,901.087646 
	C939.998291,943.287170 908.402283,964.445557 864.976929,968.768188 
	C831.443726,972.106079 797.767578,971.601196 765.026123,961.911682 
	C743.029602,955.401978 729.698425,939.831238 720.830444,919.072449 
	C710.248901,894.302185 705.801270,868.149841 701.007629,841.998596 
	C698.609436,828.916016 693.765869,818.544373 678.011169,817.772095 
	C674.115662,817.581238 669.930420,815.312134 667.007629,811.993286 
	C658.916870,802.806641 647.904968,797.189148 638.994324,789.006226 
	C636.918274,787.099670 634.987549,784.719360 631.954529,787.957397 
	C630.123413,789.912354 628.758850,787.868530 626.938904,787.156067 
	C599.570251,776.440735 588.677124,782.699829 579.842102,811.952332 
	C572.955078,834.755127 573.147766,857.849915 575.176086,880.984558 
	C577.403076,906.385620 580.316772,931.771240 584.174133,956.973328 
	C588.924438,988.009705 593.197327,1019.231445 603.996155,1049.001465 
	C607.638000,1059.041382 612.982971,1067.819580 621.992249,1074.011353 
	C630.105652,1079.587280 637.774475,1077.295532 639.841614,1067.964966 
	C641.062683,1062.453369 642.268188,1056.888794 642.135925,1050.996948 
	C641.500183,1022.670410 640.664795,994.321350 641.172241,966.003113 
	C641.782410,931.951111 644.030823,897.959229 646.755371,863.980408 
	C648.858337,837.753967 646.484985,811.834290 631.000000,789.000000 
"/>
<path fill="none" opacity="1.000000" stroke="#000000" stroke-linecap="round" stroke-linejoin="round" stroke-width="3.000000"
	d="
M860.000000,853.000000 
	C862.464600,846.252502 869.838623,841.461853 867.991638,833.001831 
	C867.557983,831.015625 869.034180,828.768311 867.010925,826.987610 
	C862.511230,823.027283 863.655273,818.951904 867.015076,815.012817 
	C870.758911,810.623535 876.210815,809.805725 880.942627,811.195312 
	C894.790405,815.262085 907.068237,822.458191 918.030090,831.965271 
	C931.669434,843.794373 936.764465,848.132690 943.906067,823.972229 
	C944.765198,821.065674 943.950378,817.983093 945.825378,814.894043 
	C948.734314,810.101562 946.164490,806.492188 942.098022,802.889343 
	C927.153442,789.648193 908.751770,785.777588 889.984863,783.106201 
	C876.238525,781.149475 862.536255,779.260803 848.972595,776.118408 
	C832.755493,772.361206 816.265930,775.894897 800.018250,776.494934 
	C782.508301,777.141541 764.842712,779.853271 747.970215,785.917114 
	C730.277466,792.275696 719.296021,805.124329 718.412170,823.020386 
	C716.543823,860.851196 722.709656,897.225586 743.773560,930.144897 
	C751.722717,942.568115 763.973633,948.327393 776.130005,951.502319 
	C816.133240,961.949890 856.568237,963.220398 895.955078,947.884644 
	C918.185242,939.229065 930.648804,920.995178 940.069702,900.031311 
	C950.709717,876.354614 955.107788,851.879822 952.195374,825.978027 
	C951.646606,821.097046 950.601868,817.193665 947.000000,814.000000 
"/>
<path fill="none" opacity="1.000000" stroke="#000000" stroke-linecap="round" stroke-linejoin="round" stroke-width="3.000000"
	d="
M1382.000000,889.000000 
	C1396.067505,902.312622 1405.812378,917.240051 1402.123657,938.021973 
	C1400.614502,946.524353 1396.098022,953.798035 1393.538818,961.853455 
	C1392.723389,964.420410 1392.507324,967.429443 1391.220093,970.105835 
	C1389.530151,973.619568 1392.117310,976.525391 1394.939087,979.067566 
	C1398.624268,982.387512 1401.935181,979.067810 1403.825928,977.750244 
	C1412.459229,971.733521 1417.153564,962.414612 1420.894653,952.958313 
	C1431.259644,926.758484 1440.151978,899.990845 1443.722168,871.964600 
	C1445.267090,859.836365 1446.859375,846.882263 1442.746094,835.088562 
	C1436.242310,816.441162 1426.697754,815.986023 1414.195557,828.200195 
	C1401.964844,840.149414 1394.206055,855.508179 1386.954102,870.978516 
	C1375.242554,895.962463 1374.399658,922.184753 1376.933350,949.006287 
	C1379.645386,977.716797 1376.027588,1006.352905 1374.722534,1034.987305 
	C1374.281250,1044.669800 1373.883423,1054.368408 1374.239014,1063.991211 
	C1374.493286,1070.870605 1377.729492,1076.978027 1384.971069,1080.067871 
	C1391.851074,1083.003418 1397.398071,1079.763428 1401.875854,1075.857666 
	C1416.369629,1063.215210 1423.990601,1046.629517 1428.067993,1028.014893 
	C1436.932861,987.544861 1447.918945,947.635193 1459.880859,907.964111 
	C1468.542969,879.236877 1468.408203,850.211426 1461.150391,820.962646 
	C1455.427002,797.896606 1440.067261,780.440002 1410.003906,791.011047 
	C1409.306274,791.256287 1408.666626,791.000000 1408.000000,790.000000 
"/>
<path fill="none" opacity="1.000000" stroke="#000000" stroke-linecap="round" stroke-linejoin="round" stroke-width="3.000000"
	d="
M1365.000000,903.000000 
	C1367.408447,915.422424 1359.621338,925.961365 1358.712524,937.978271 
	C1356.664917,965.051575 1354.524902,992.186157 1349.929565,1018.987915 
	C1344.275146,1051.967529 1335.669800,1083.727661 1313.195435,1110.166138 
	C1306.481201,1118.064819 1298.954590,1125.041870 1290.807251,1130.723633 
	C1267.827393,1146.749512 1251.110962,1168.019775 1235.927002,1190.951660 
	C1232.146729,1196.660767 1228.403320,1202.597778 1222.966187,1206.957886 
	C1215.127075,1213.244019 1206.298828,1210.808472 1204.198730,1200.957642 
	C1201.116333,1186.500244 1201.411987,1171.802979 1202.820068,1156.982910 
	C1205.067871,1133.322754 1204.702148,1109.514282 1195.792969,1087.082275 
	C1189.439209,1071.084106 1174.848145,1065.161255 1158.983154,1063.131836 
	C1138.948120,1060.569092 1120.116211,1053.866333 1100.981689,1048.060181 
	C1090.250854,1044.804077 1079.540161,1041.662842 1067.997559,1041.824341 
	C1057.716187,1041.968384 1048.657837,1044.606445 1039.954102,1049.924805 
	C1027.142700,1057.753052 1014.121704,1064.700439 997.972290,1062.177368 
	C988.407959,1060.683228 980.502991,1056.254761 973.069763,1050.903076 
	C957.139526,1039.433350 939.927795,1038.151611 922.032654,1044.098145 
	C895.589722,1052.885010 869.302368,1062.165405 841.989380,1067.949951 
	C820.079163,1072.590454 811.724915,1087.325439 808.134216,1109.022217 
	C806.530273,1118.714355 807.728394,1128.667236 806.735107,1138.573730 
	C806.014282,1145.763062 810.567566,1153.994873 812.091431,1161.982544 
	C814.825684,1176.314331 816.133972,1190.660034 812.898499,1204.977051 
	C810.638245,1214.978882 805.376526,1217.241577 794.979309,1215.100464 
	C783.756775,1212.789307 774.783020,1206.090332 767.225647,1198.767090 
	C730.380737,1163.063843 696.963318,1125.102173 681.658386,1074.102539 
	C672.567200,1043.808594 665.409973,1013.407471 661.860779,982.015747 
	C660.203735,967.360474 657.797607,952.803467 658.030273,938.000488 
	C658.062256,935.963074 657.092957,934.496155 656.000000,933.000000 
"/>
<path fill="none" opacity="1.000000" stroke="#000000" stroke-linecap="round" stroke-linejoin="round" stroke-width="3.000000"
	d="
M1338.000000,1797.500000 
	C1334.031982,1789.272217 1338.442993,1781.697266 1340.084717,1774.018066 
	C1345.868896,1746.963623 1345.625977,1719.354736 1347.870483,1691.989380 
	C1350.081299,1665.032593 1356.758789,1641.232178 1381.902100,1625.839966 
	C1408.041870,1609.837646 1415.161499,1582.963135 1417.826538,1554.983521 
	C1423.683472,1493.492920 1411.183594,1434.041504 1396.002930,1374.999268 
	C1388.039673,1344.028076 1374.376465,1315.937134 1352.890503,1292.098755 
	C1344.931396,1283.268311 1336.748291,1274.259766 1325.000000,1270.000000 
"/>
<path fill="none" opacity="1.000000" stroke="#000000" stroke-linecap="round" stroke-linejoin="round" stroke-width="3.000000"
	d="
M476.000000,1474.000000 
	C474.000000,1471.203125 471.256287,1473.504272 470.108459,1474.183350 
	C439.793579,1492.116455 406.942444,1504.379028 373.921082,1515.771240 
	C311.492004,1537.308838 248.915527,1558.346680 187.982117,1583.957520 
	C138.653244,1604.690918 89.917328,1626.555908 45.023922,1656.036377 
	C33.103680,1663.864136 22.188618,1673.000000 11.971694,1682.970947 
	C9.256140,1685.621094 7.171372,1689.172729 3.000000,1690.000000 
"/>
<path fill="none" opacity="1.000000" stroke="#000000" stroke-linecap="round" stroke-linejoin="round" stroke-width="3.000000"
	d="
M955.000000,464.000000 
	C944.666016,468.548645 933.629578,465.853180 922.976440,466.705536 
	C877.114807,470.374786 832.504211,479.119568 790.036255,497.085663 
	C758.058655,510.613770 729.025940,528.077515 713.004761,561.002319 
	C702.234192,583.136719 701.826233,606.478271 706.290039,629.944824 
	C707.623657,636.955872 710.086853,644.079163 711.622131,651.082825 
	C713.758667,660.829102 711.132751,670.295532 705.161377,679.109314 
	C693.850830,695.803772 682.951538,712.812683 675.929443,731.974121 
	C671.504456,744.048767 668.844116,756.543579 666.108459,769.023804 
	C665.285889,772.776367 664.906189,776.580505 663.000000,780.000000 
"/>
<path fill="none" opacity="1.000000" stroke="#000000" stroke-linecap="round" stroke-linejoin="round" stroke-width="3.000000"
	d="
M1106.000000,786.000000 
	C1098.178955,790.613953 1088.925171,791.381165 1080.915405,795.848389 
	C1067.652466,803.245544 1059.508789,813.668274 1059.077148,829.002197 
	C1058.368774,854.174561 1062.586792,878.780334 1072.217285,901.909546 
	C1084.860718,932.275330 1109.013794,949.439209 1141.025635,954.848267 
	C1171.017578,959.916077 1201.073975,959.249023 1231.018921,953.091797 
	C1252.550659,948.664490 1267.859009,936.913757 1277.000366,917.000183 
	C1286.774170,895.708557 1294.246948,873.841614 1294.051392,849.999573 
	C1294.033936,847.885620 1293.742798,845.931763 1293.000000,844.000000 
"/>
<path fill="none" opacity="1.000000" stroke="#000000" stroke-linecap="round" stroke-linejoin="round" stroke-width="3.000000"
	d="
M1284.000000,1788.000000 
	C1279.005615,1787.673096 1277.876465,1791.852905 1276.028198,1795.016479 
	C1268.615112,1807.704834 1262.311768,1820.881348 1257.952026,1834.985107 
	C1252.962280,1851.127075 1243.489502,1863.497681 1229.154297,1873.227295 
	C1200.975830,1892.352295 1170.253418,1906.860962 1140.978882,1923.963867 
	C1105.570679,1944.649780 1071.604004,1967.248413 1043.023682,1997.022705 
	C1007.992798,2033.516724 981.369568,2075.096436 966.923401,2123.977295 
	C966.046753,2126.943359 966.183594,2130.906494 962.000000,2132.000000 
"/>
<path fill="none" opacity="1.000000" stroke="#000000" stroke-linecap="round" stroke-linejoin="round" stroke-width="3.000000"
	d="
M656.000000,863.000000 
	C653.618652,870.857117 654.603271,879.065125 654.274231,887.011353 
	C652.232422,936.317688 647.688049,985.585083 650.062683,1034.996948 
	C652.506714,1085.854248 655.180725,1136.706909 673.958679,1185.016113 
	C684.479126,1212.081299 698.661255,1237.137451 715.182983,1260.872681 
	C717.959961,1264.861938 719.204651,1268.487305 719.000000,1273.000000 
"/>
<path fill="none" opacity="1.000000" stroke="#000000" stroke-linecap="round" stroke-linejoin="round" stroke-width="3.000000"
	d="
M1982.500000,1562.000000 
	C1956.521851,1549.446411 1929.663940,1538.940552 1902.982788,1528.041992 
	C1841.736206,1503.024658 1779.923340,1479.475342 1716.966187,1459.104492 
	C1679.150269,1446.868652 1641.044312,1435.518311 1602.959717,1424.134888 
	C1595.995483,1422.053223 1590.067627,1416.263428 1582.000000,1418.000000 
"/>
<path fill="none" opacity="1.000000" stroke="#000000" stroke-linecap="round" stroke-linejoin="round" stroke-width="3.000000"
	d="
M1364.000000,499.000000 
	C1347.925903,498.495270 1330.533813,509.800079 1324.000488,524.994995 
	C1327.623657,529.849548 1332.895142,526.551147 1335.864990,525.585144 
	C1348.013062,521.633728 1359.158325,513.976807 1364.314697,502.687012 
	C1367.557007,495.587982 1371.117554,495.630981 1375.989258,496.109192 
	C1412.853027,499.727417 1438.332520,528.136841 1445.922607,557.020325 
	C1452.115601,580.587036 1450.392944,604.250244 1446.108154,628.019531 
	C1439.692261,663.611206 1433.956909,699.326172 1428.017212,735.002869 
	C1424.773560,754.485046 1417.305664,772.273193 1407.067871,789.041443 
	C1405.731079,791.230835 1404.537964,793.347595 1401.992676,793.969971 
	C1382.482666,798.740112 1365.548706,811.047852 1345.915771,814.524597 
	C1333.354370,816.749146 1325.425171,824.070557 1315.587646,830.354370 
	C1302.489502,838.720703 1289.062744,848.676514 1272.001343,849.057434 
	C1257.055420,849.391174 1244.152100,843.629150 1232.076782,835.880432 
	C1223.720459,830.518250 1214.674194,826.636414 1205.898071,822.201843 
	C1203.925293,821.204956 1200.666626,819.054077 1198.000000,822.000000 
"/>
<path fill="none" opacity="1.000000" stroke="#000000" stroke-linecap="round" stroke-linejoin="round" stroke-width="3.000000"
	d="
M874.000000,1110.000000 
	C890.369873,1104.763306 907.534912,1102.858276 924.013672,1098.046875 
	C929.593994,1096.417603 935.354431,1095.416504 940.996033,1093.984375 
	C958.206055,1089.615967 975.339905,1089.733276 991.947754,1096.135498 
	C1001.307129,1099.743652 1010.876404,1101.714844 1019.908936,1097.790527 
	C1040.380127,1088.896240 1060.475098,1092.757690 1081.028198,1096.858887 
	C1104.937744,1101.629639 1128.620605,1107.857788 1153.011963,1109.853516 
	C1157.581787,1110.227417 1158.810791,1113.363403 1161.148071,1115.570190 
	C1160.164062,1118.617554 1159.255371,1121.048096 1157.043701,1123.048218 
	C1141.177368,1137.396362 1128.817627,1154.837646 1114.865112,1170.882690 
	C1098.757080,1189.406372 1079.043457,1201.364136 1054.108521,1206.524292 
	C1029.724976,1211.570190 1005.350708,1213.584961 981.033875,1211.587646 
	C948.079895,1208.880981 920.328186,1193.780396 896.840759,1170.158325 
	C882.225830,1155.459595 868.968201,1139.829224 856.996948,1123.002197 
	C852.874023,1117.206909 854.567932,1113.717285 862.001465,1113.015747 
	C873.309326,1111.948730 884.445862,1114.427612 896.075378,1112.441284 
	C916.432129,1108.963989 937.232056,1107.340698 957.998169,1110.014160 
	C970.341492,1111.603394 982.700073,1113.121338 994.991089,1115.056396 
	C1008.763489,1117.224731 1022.560242,1115.283691 1035.947266,1113.584473 
	C1063.456055,1110.092773 1090.661621,1110.690674 1118.004761,1113.960327 
	C1122.692993,1114.520996 1127.308716,1114.021362 1132.115112,1115.662964 
	C1135.973999,1116.980835 1139.380981,1117.439941 1139.959229,1122.005127 
	C1140.506592,1126.326782 1139.477417,1129.486206 1135.096558,1132.158325 
	C1122.102905,1140.083984 1107.989014,1145.291016 1094.135254,1151.311157 
	C1079.383667,1157.721191 1063.947021,1156.001587 1048.955688,1157.578491 
	C1014.622192,1161.189941 980.151855,1160.275269 945.992737,1154.039673 
	C934.094666,1151.867676 922.412415,1149.022827 910.977966,1145.063599 
	C907.823364,1143.971436 904.610718,1141.559448 901.000000,1144.000000 
"/>
<path fill="none" opacity="1.000000" stroke="#000000" stroke-linecap="round" stroke-linejoin="round" stroke-width="3.000000"
	d="
M1370.000000,496.000000 
	C1372.666626,487.666656 1376.062134,479.488373 1377.873779,470.973145 
	C1385.669312,434.330353 1373.803223,402.128174 1352.811768,373.136322 
	C1325.093628,334.854492 1286.936157,310.302246 1243.050537,293.865173 
	C1232.206543,289.803650 1221.858154,284.468719 1209.999268,284.019379 
	C1205.542847,283.850494 1200.133667,282.797089 1198.216187,288.078491 
	C1196.787476,292.013397 1199.086426,297.140686 1201.270874,299.775360 
	C1211.064697,311.587738 1216.289062,326.147827 1225.813477,338.148071 
	C1235.708252,350.615082 1244.627563,363.860779 1254.906494,376.078644 
	C1257.692627,379.390411 1260.081543,383.010925 1264.031616,384.935211 
	C1266.570679,386.172180 1268.665405,389.623871 1271.948730,387.902313 
	C1275.307861,386.141022 1276.052368,382.931305 1276.125488,379.002319 
	C1276.484985,359.656708 1268.720703,343.448029 1254.751953,331.284912 
	C1241.464111,319.714661 1226.016357,310.688965 1209.000000,305.000000 
"/>
<path fill="none" opacity="1.000000" stroke="#000000" stroke-linecap="round" stroke-linejoin="round" stroke-width="3.000000"
	d="
M945.000000,802.000000 
	C946.415161,784.151550 939.394470,770.092712 924.944824,760.079590 
	C903.326599,745.098938 878.503723,738.477051 852.996582,734.019470 
	C838.779236,731.534851 824.546692,729.736145 809.998779,729.868042 
	C779.561279,730.144104 755.418457,745.019226 731.982849,761.976257 
	C727.255432,765.396729 728.968933,769.118408 731.237976,773.276184 
	C748.369385,768.182068 766.515991,771.672119 784.013916,768.067505 
	C786.434265,767.568909 789.166382,768.415771 791.000000,766.000000 
"/>
<path fill="none" opacity="1.000000" stroke="#000000" stroke-linecap="round" stroke-linejoin="round" stroke-width="3.000000"
	d="
M1288.000000,775.000000 
	C1290.009399,772.666687 1290.891479,770.716797 1288.060059,767.938782 
	C1267.038818,747.313599 1242.242798,732.745850 1212.955444,730.611694 
	C1192.150879,729.095642 1170.801758,732.459167 1150.030640,736.171143 
	C1128.604858,740.000000 1107.444580,745.347351 1087.039795,753.104736 
	C1080.732300,755.502747 1074.294556,758.472900 1070.108032,764.080688 
	C1067.032227,768.200928 1065.061157,772.834106 1071.939697,776.125916 
	C1074.312500,777.261475 1075.767578,779.868530 1078.995972,780.065979 
	C1104.363037,781.617737 1129.743408,786.506958 1155.030762,779.105164 
	C1157.354370,778.425049 1159.129639,777.789307 1161.111572,776.133606 
	C1170.844849,768.002441 1182.955566,764.282715 1194.991211,764.496582 
	C1205.205444,764.678040 1215.408081,767.888611 1225.991943,768.242310 
	C1242.708740,768.800781 1259.055420,772.922180 1275.931763,774.035156 
	C1291.210815,775.042847 1306.697876,782.243225 1321.966309,787.105835 
	C1330.393188,789.789612 1328.725464,798.967346 1332.000000,805.000000 
"/>
<path fill="none" opacity="1.000000" stroke="#000000" stroke-linecap="round" stroke-linejoin="round" stroke-width="3.000000"
	d="
M915.000000,851.000000 
	C899.363586,847.352356 884.261475,852.715210 869.032043,854.306641 
	C843.881042,856.934631 819.362610,855.025208 795.012207,848.951050 
	C790.677063,847.869690 786.344666,848.221008 782.001892,847.967163 
	C774.443970,847.525452 767.149414,848.797852 765.257141,857.058899 
	C763.546631,864.526184 767.825073,870.516907 773.979797,875.027588 
	C782.088928,880.970581 791.502686,883.776917 801.019470,885.913269 
	C840.130188,894.693115 875.123352,884.194641 908.156555,863.246887 
	C914.452759,859.254211 915.118347,852.842346 919.438599,846.886780 
	C902.631653,836.209167 886.519287,823.933777 866.000000,820.000000 
"/>
<path fill="none" opacity="1.000000" stroke="#000000" stroke-linecap="round" stroke-linejoin="round" stroke-width="3.000000"
	d="
M910.000000,966.000000 
	C910.920471,969.793579 907.516602,971.414673 906.154358,974.078918 
	C899.568726,986.958496 896.212463,1000.227539 903.991455,1014.004822 
	C910.220276,1025.036499 915.402588,1027.413086 926.960266,1022.898254 
	C939.292603,1018.080627 951.109314,1015.254333 963.071106,1023.901672 
	C967.181763,1026.873291 970.447998,1030.562866 973.958984,1034.041382 
	C992.891846,1052.799927 1015.397461,1053.344116 1034.948853,1034.945679 
	C1044.903076,1025.578369 1055.635986,1018.771912 1070.005127,1019.937134 
	C1072.018311,1020.100403 1073.467407,1020.998291 1075.075562,1021.946716 
	C1074.662476,1025.386108 1069.858643,1025.794678 1069.942261,1029.477539 
	C1085.202393,1035.411621 1105.191162,1024.480713 1110.076904,1008.022827 
	C1113.468750,996.597046 1111.200317,986.091248 1105.819702,976.097107 
	C1104.689209,973.997375 1103.866211,972.266846 1104.000000,970.000000 
"/>
<path fill="none" opacity="1.000000" stroke="#000000" stroke-linecap="round" stroke-linejoin="round" stroke-width="3.000000"
	d="
M1093.000000,859.000000 
	C1100.782349,869.393433 1112.666626,872.775574 1124.012085,876.967346 
	C1143.382324,884.123962 1163.545654,888.536255 1184.017212,889.696045 
	C1203.232910,890.784668 1221.821045,887.259277 1236.050049,872.046875 
	C1239.859497,867.974182 1241.740479,863.070007 1242.881470,857.973450 
	C1244.416992,851.114014 1239.587769,846.051697 1233.081177,848.241089 
	C1227.758301,850.032227 1222.265991,851.049744 1216.951538,852.857666 
	C1200.134277,858.578857 1182.714355,858.773804 1165.051514,859.847290 
	C1144.625977,861.088867 1126.878540,850.027344 1106.992432,851.920166 
	C1101.771362,852.417114 1096.592041,852.227112 1094.000000,858.000000 
"/>
<path fill="none" opacity="1.000000" stroke="#000000" stroke-linecap="round" stroke-linejoin="round" stroke-width="3.000000"
	d="
M1097.000000,964.000000 
	C1129.851562,979.587769 1149.420532,1008.885071 1170.902344,1036.077148 
	C1182.521362,1050.784668 1196.004639,1063.910645 1206.148071,1079.906128 
	C1218.484253,1099.359741 1215.483276,1118.939331 1209.051270,1139.016479 
	C1208.341309,1141.233154 1207.238892,1142.207397 1205.000000,1142.000000 
"/>
<path fill="none" opacity="1.000000" stroke="#000000" stroke-linecap="round" stroke-linejoin="round" stroke-width="3.000000"
	d="
M913.000000,963.000000 
	C905.864136,964.288818 900.290466,968.178955 894.946289,972.939697 
	C871.632935,993.707581 853.584473,1019.013855 833.998413,1042.998657 
	C823.914429,1055.347412 812.140320,1066.630615 805.202515,1081.097168 
	C796.669373,1098.890015 794.279846,1117.483887 804.000000,1136.000000 
"/>
<path fill="none" opacity="1.000000" stroke="#000000" stroke-linecap="round" stroke-linejoin="round" stroke-width="3.000000"
	d="
M869.000000,1114.000000 
	C866.965332,1121.698608 869.562927,1127.787598 876.028809,1131.955322 
	C902.540955,1149.044434 930.412476,1163.653198 962.036072,1167.719727 
	C992.320984,1171.614136 1022.873413,1172.317017 1053.001465,1165.005981 
	C1059.367676,1163.461060 1066.071411,1163.204712 1072.000000,1160.000000 
"/>
<path fill="none" opacity="1.000000" stroke="#000000" stroke-linecap="round" stroke-linejoin="round" stroke-width="3.000000"
	d="
M1161.000000,778.000000 
	C1164.565674,781.272400 1168.961914,779.961365 1172.999634,779.937744 
	C1200.291260,779.777771 1227.442383,781.295349 1253.960083,788.154114 
	C1262.731445,790.422729 1271.736572,792.730896 1279.036987,798.956604 
	C1289.582397,807.949280 1294.786621,819.076050 1294.067261,833.003479 
	C1293.930786,835.645874 1294.666748,838.333313 1295.000000,841.000000 
"/>
<path fill="none" opacity="1.000000" stroke="#000000" stroke-linecap="round" stroke-linejoin="round" stroke-width="3.000000"
	d="
M1249.000000,837.000000 
	C1239.563721,820.900940 1223.381348,814.783813 1206.947510,810.187805 
	C1172.299561,800.497925 1139.631958,806.598938 1108.973267,824.955383 
	C1104.892944,827.398376 1100.451050,829.237427 1096.331299,831.279419 
	C1091.475464,827.180847 1095.353882,823.913269 1097.099609,821.060974 
	C1103.897705,809.953796 1111.956787,800.181458 1123.860962,793.742920 
	C1128.211182,791.390015 1133.478271,789.107239 1136.000000,784.000000 
"/>
<path fill="none" opacity="1.000000" stroke="#000000" stroke-linecap="round" stroke-linejoin="round" stroke-width="3.000000"
	d="
M1078.000000,781.000000 
	C1061.846191,788.877136 1044.558228,792.703125 1027.026001,796.132874 
	C998.929810,801.629211 972.428162,795.146667 946.000000,787.000000 
"/>
<path fill="none" opacity="1.000000" stroke="#000000" stroke-linecap="round" stroke-linejoin="round" stroke-width="3.000000"
	d="
M1336.000000,1782.000000 
	C1332.197144,1779.575684 1330.989868,1775.111084 1328.055298,1771.948730 
	C1320.443359,1763.745361 1302.928955,1764.052490 1295.901123,1772.921631 
	C1283.634399,1788.403076 1278.738159,1807.135620 1272.327026,1825.116577 
	C1270.622559,1829.896729 1269.895264,1837.137329 1276.051758,1840.915771 
	C1283.500122,1845.486938 1292.039673,1843.834961 1298.855713,1840.687500 
	C1313.864136,1833.756836 1323.617065,1821.185181 1330.037109,1806.015747 
	C1331.260864,1803.124512 1332.520264,1800.158447 1335.000000,1798.000000 
"/>
<path fill="none" opacity="1.000000" stroke="#000000" stroke-linecap="round" stroke-linejoin="round" stroke-width="3.000000"
	d="
M940.000000,782.000000 
	C929.342651,783.286743 919.904846,777.943481 910.114685,775.534119 
	C887.626038,769.999451 864.988770,766.031799 842.005981,766.387756 
	C828.818420,766.592041 815.898499,766.592346 803.002441,763.987854 
	C799.541748,763.288879 796.374390,765.077332 793.000000,765.000000 
"/>
<path fill="none" opacity="1.000000" stroke="#000000" stroke-linecap="round" stroke-linejoin="round" stroke-width="3.000000"
	d="
M872.000000,811.000000 
	C859.047913,803.473755 844.682251,805.345398 831.020996,806.300659 
	C805.406616,808.091797 782.009399,816.343201 764.000000,836.000000 
"/>
<path fill="none" opacity="1.000000" stroke="#000000" stroke-linecap="round" stroke-linejoin="round" stroke-width="3.000000"
	d="
M1302.000000,1767.000000 
	C1302.000000,1764.000000 1302.031982,1760.999146 1301.955933,1758.001099 
	C1301.947388,1757.659668 1301.333252,1757.333496 1300.255127,1756.255371 
	C1278.118896,1751.160156 1260.800659,1761.377319 1246.170898,1777.158447 
	C1238.551270,1785.377808 1231.201172,1794.232056 1227.027832,1805.010742 
	C1225.913086,1807.889771 1223.732178,1809.211914 1220.731079,1810.122437 
	C1217.451416,1803.335938 1217.157349,1795.383057 1212.954590,1789.030029 
	C1207.965210,1781.487549 1204.499512,1781.124756 1198.007080,1787.007812 
	C1194.241455,1790.419800 1190.817261,1794.213623 1189.051758,1799.019043 
	C1184.629639,1811.055908 1187.910522,1812.892456 1198.002563,1813.976685 
	C1205.553955,1814.787964 1212.645508,1811.845215 1219.962280,1810.867432 
	C1221.134888,1814.994263 1221.292236,1818.110718 1218.266235,1822.197144 
	C1212.347900,1830.189331 1210.814941,1839.989990 1210.930420,1850.000854 
	C1210.996460,1855.717773 1215.545898,1857.296631 1218.728394,1860.214966 
	C1227.649658,1853.153320 1228.468506,1837.596802 1221.000000,1822.000000 
"/>
<path fill="none" opacity="1.000000" stroke="#000000" stroke-linecap="round" stroke-linejoin="round" stroke-width="3.000000"
	d="
M1357.000000,786.000000 
	C1366.365845,782.092407 1376.370728,784.235291 1386.031616,783.342896 
	C1395.107666,782.504517 1398.182983,789.952454 1399.037720,798.356079 
	C1377.720825,820.918396 1375.115723,848.741760 1378.017700,877.998230 
	C1378.223633,880.073547 1378.133057,882.453491 1381.000000,883.000000 
"/>
<path fill="none" opacity="1.000000" stroke="#000000" stroke-linecap="round" stroke-linejoin="round" stroke-width="3.000000"
	d="
M861.000000,820.000000 
	C847.156555,813.092407 833.545959,815.583618 818.903015,818.515564 
	C797.687134,822.763550 781.574646,835.429688 763.975647,845.959290 
	C752.523132,852.811401 740.097168,854.710327 727.000000,852.000000 
"/>
<path fill="none" opacity="1.000000" stroke="#000000" stroke-linecap="round" stroke-linejoin="round" stroke-width="3.000000"
	d="
M1359.000000,812.000000 
	C1363.157959,822.657593 1361.898804,833.975586 1362.963501,845.003540 
	C1364.442383,860.322815 1365.666748,875.666687 1367.000000,891.000000 
"/>
<path fill="none" opacity="1.000000" stroke="#000000" stroke-linecap="round" stroke-linejoin="round" stroke-width="3.000000"
	d="
M1274.000000,773.000000 
	C1268.903320,764.074097 1259.140869,763.377441 1250.926880,761.287415 
	C1233.340210,756.812439 1215.367920,754.417664 1198.000000,763.000000 
"/>
<path fill="none" opacity="1.000000" stroke="#000000" stroke-linecap="round" stroke-linejoin="round" stroke-width="3.000000"
	d="
M1171.000000,768.000000 
	C1162.333374,763.215576 1153.488403,767.841492 1145.039062,768.500549 
	C1129.891968,769.682007 1114.742065,772.709412 1099.998535,776.994873 
	C1098.718140,777.367126 1097.910156,778.061401 1098.000000,779.500000 
"/>
<path fill="none" opacity="1.000000" stroke="#000000" stroke-linecap="round" stroke-linejoin="round" stroke-width="3.000000"
	d="
M729.000000,774.000000 
	C708.397034,782.193665 687.552551,788.670166 665.000000,783.000000 
"/>
<path fill="none" opacity="1.000000" stroke="#000000" stroke-linecap="round" stroke-linejoin="round" stroke-width="3.000000"
	d="
M1147.000000,822.000000 
	C1141.777100,819.145203 1138.205444,823.789795 1134.050171,825.152954 
	C1121.564453,829.248718 1110.732056,836.608582 1100.032715,844.046997 
	C1097.021729,846.140198 1094.445557,848.815186 1097.000000,853.000000 
"/>
<path fill="none" opacity="1.000000" stroke="#000000" stroke-linecap="round" stroke-linejoin="round" stroke-width="3.000000"
	d="
M1271.000000,1787.000000 
	C1257.552734,1795.338623 1244.090820,1803.644287 1228.000000,1806.000000 
"/>
<path fill="none" opacity="1.000000" stroke="#000000" stroke-linecap="round" stroke-linejoin="round" stroke-width="3.000000"
	d="
M1178.000000,1140.000000 
	C1184.436279,1153.653442 1182.950195,1169.517822 1188.986572,1183.748535 
	C1196.619629,1180.108276 1193.480347,1172.011719 1198.000000,1168.000000 
"/>
<path fill="none" opacity="1.000000" stroke="#000000" stroke-linecap="round" stroke-linejoin="round" stroke-width="3.000000"
	d="
M1354.000000,785.000000 
	C1348.472778,786.926147 1342.871216,788.536255 1335.394531,787.758789 
	C1338.267578,797.928284 1333.824585,806.197693 1334.000000,815.000000 
"/>
<path fill="none" opacity="1.000000" stroke="#000000" stroke-linecap="round" stroke-linejoin="round" stroke-width="3.000000"
	d="
M1168.000000,856.000000 
	C1176.369629,850.613159 1177.155151,841.049316 1179.721436,832.912170 
	C1182.708618,823.439941 1174.878662,815.513000 1165.015625,817.097168 
	C1156.637329,818.442810 1146.951416,819.072327 1145.146484,830.024109 
	C1143.603516,839.386169 1146.303589,847.527405 1154.905640,853.144531 
	C1156.885132,854.437073 1160.652222,855.067566 1160.000000,859.000000 
"/>
<path fill="none" opacity="1.000000" stroke="#000000" stroke-linecap="round" stroke-linejoin="round" stroke-width="3.000000"
	d="
M791.000000,764.000000 
	C783.120667,757.658264 774.204529,762.279053 766.027710,762.635498 
	C762.749634,762.778320 757.077148,761.898010 754.000000,766.000000 
"/>
<path fill="none" opacity="1.000000" stroke="#000000" stroke-linecap="round" stroke-linejoin="round" stroke-width="3.000000"
	d="
M862.000000,823.000000 
	C858.212708,832.140137 858.414795,843.400940 848.015076,849.027832 
	C845.475098,850.402039 841.779358,850.779358 842.000000,855.000000 
"/>
<path fill="none" opacity="1.000000" stroke="#000000" stroke-linecap="round" stroke-linejoin="round" stroke-width="3.000000"
	d="
M1175.000000,818.000000 
	C1182.989380,815.336487 1193.752441,817.293335 1197.000000,822.000000 
	C1202.294800,829.673462 1202.161743,839.554626 1197.060425,847.041199 
	C1194.766113,850.408447 1190.906738,852.668030 1190.000000,857.000000 
"/>
<path fill="none" opacity="1.000000" stroke="#000000" stroke-linecap="round" stroke-linejoin="round" stroke-width="3.000000"
	d="
M815.000000,821.000000 
	C809.495544,830.427368 812.006042,838.569275 818.997620,846.002197 
	C821.179260,848.321472 823.333374,850.666626 825.500000,853.000000 
"/>
<path fill="none" opacity="1.000000" stroke="#000000" stroke-linecap="round" stroke-linejoin="round" stroke-width="3.000000"
	d="
M816.000000,1172.000000 
	C823.529663,1180.522583 821.766724,1190.967773 822.000000,1201.000000 
"/>
<path fill="none" opacity="1.000000" stroke="#000000" stroke-linecap="round" stroke-linejoin="round" stroke-width="3.000000"
	d="
M1158.000000,821.000000 
	C1155.979980,836.507996 1159.104370,840.000000 1175.000000,840.000000 
"/>
<path fill="none" opacity="1.000000" stroke="#000000" stroke-linecap="round" stroke-linejoin="round" stroke-width="3.000000"
	d="
M1532.000000,1386.000000 
	C1538.429199,1393.513306 1545.014282,1400.777100 1556.000000,1401.000000 
"/>
</svg>